<?xml version="1.0" encoding="UTF-8"?>
<svg id="Layer_1" data-name="Layer 1" xmlns="http://www.w3.org/2000/svg" xmlns:xlink="http://www.w3.org/1999/xlink" viewBox="0 0 4538.74 2262.91">
  <defs>
    <style>
      .cls-1 { fill: #f1e8a4; }
      .cls-2 { fill: #233042; }
      .cls-3 { fill: url(#linear-gradient-2); }
      .cls-4 { fill: #031b46; }
      .cls-5 { fill: url(#linear-gradient-10); }
      .cls-6 { fill: url(#linear-gradient-12); }
      .cls-7 { fill: #816730; }
      .cls-8 { fill: #019bdc; }
      .cls-9 { fill: #ede0a2; }
      .cls-10 { fill: #7c602c; }
      .cls-11 { fill: #aa8c46; }
      .cls-12, .cls-13 { fill: none; }
      .cls-14 { fill: url(#linear-gradient-4); }
      .cls-15 { fill: #cca04a; }
      .cls-16 { fill: #dcc474; }
      .cls-17 { fill: #bd9c4f; }
      .cls-18 { fill: url(#linear-gradient-3); }
      .cls-19 { fill: url(#linear-gradient-5); }
      .cls-20 { fill: #012351; }
      .cls-21 { fill: #8d7540; }
      .cls-22 { fill: url(#linear-gradient-8); }
      .cls-23 { fill: #101724; }
      .cls-24 { fill: url(#linear-gradient-7); }
      .cls-25 { fill: url(#linear-gradient-9); }
      .cls-26 { fill: #b21311; }
      .cls-27 { fill: url(#linear-gradient-11); }
      .cls-28 { fill: #fdfdfe; }
      .cls-29 { fill: url(#linear-gradient-6); }
      .cls-30 { fill: #9c8247; }
      .cls-31 { fill: #f7f8f3; }
      .cls-32 { fill: #292d34; }
      .cls-33 { fill: #b37528; }
      .cls-34 { fill: #d8ba69; }
      .cls-13 { stroke: #231f20; stroke-miterlimit: 10; }
      .cls-35 { fill: url(#linear-gradient); }
      .cls-36 { fill: #c31421; }
      .cls-37 { opacity: .5; }
      .cls-38 { fill: #daba68; }
      .cls-39 { fill: #d2a955; }
      .cls-40 { fill: #1e1810; }
    </style>
    <linearGradient id="linear-gradient" x1="2167.54" y1="190.81" x2="2750.12" y2="658.68" gradientTransform="translate(0 1657.65) scale(1 -1)" gradientUnits="userSpaceOnUse">
      <stop offset="0" stop-color="#8b7137"/>
      <stop offset="1" stop-color="#a78a45"/>
    </linearGradient>
    <linearGradient id="linear-gradient-2" x1="3404.81" y1="878.46" x2="2318.32" y2="843.36" gradientTransform="translate(0 1657.65) scale(1 -1)" gradientUnits="userSpaceOnUse">
      <stop offset="0" stop-color="#b98a3b"/>
      <stop offset="1" stop-color="#d2ba6e"/>
    </linearGradient>
    <linearGradient id="linear-gradient-3" x1="2945.53" y1="829.91" x2="2772.01" y2="856.94" gradientTransform="translate(0 1657.65) scale(1 -1)" gradientUnits="userSpaceOnUse">
      <stop offset="0" stop-color="#ba8f34"/>
      <stop offset="1" stop-color="#ddc887"/>
    </linearGradient>
    <linearGradient id="linear-gradient-4" x1="2941.9" y1="963.83" x2="2887.17" y2="948.11" gradientTransform="translate(0 1657.65) scale(1 -1)" gradientUnits="userSpaceOnUse">
      <stop offset="0" stop-color="#e9d372"/>
      <stop offset="1" stop-color="#faf5c7"/>
    </linearGradient>
    <linearGradient id="linear-gradient-5" x1="2945.77" y1="961.57" x2="2871.37" y2="947.29" gradientTransform="translate(0 1657.65) scale(1 -1)" gradientUnits="userSpaceOnUse">
      <stop offset="0" stop-color="#a06022"/>
      <stop offset="1" stop-color="#d2a541"/>
    </linearGradient>
    <linearGradient id="linear-gradient-6" x1="2786.81" y1="933.26" x2="2817.91" y2="933.41" gradientTransform="translate(0 1657.65) scale(1 -1)" gradientUnits="userSpaceOnUse">
      <stop offset="0" stop-color="#c08d3c"/>
      <stop offset="1" stop-color="#e4c666"/>
    </linearGradient>
    <linearGradient id="linear-gradient-7" x1="2926.05" y1="1007.54" x2="2947.46" y2="1083.02" gradientTransform="translate(0 1657.65) scale(1 -1)" gradientUnits="userSpaceOnUse">
      <stop offset="0" stop-color="#d29d45"/>
      <stop offset="1" stop-color="#e4c972"/>
    </linearGradient>
    <linearGradient id="linear-gradient-8" x1="3000.7" y1="1061.42" x2="2952.63" y2="1069.16" gradientTransform="translate(0 1657.65) scale(1 -1)" gradientUnits="userSpaceOnUse">
      <stop offset="0" stop-color="#ae701d"/>
      <stop offset="1" stop-color="#c79037"/>
    </linearGradient>
    <linearGradient id="linear-gradient-9" x1="3247.58" y1="822.81" x2="2654.52" y2="973.55" gradientTransform="translate(0 1657.65) scale(1 -1)" gradientUnits="userSpaceOnUse">
      <stop offset="0" stop-color="#c09443"/>
      <stop offset="1" stop-color="#d3b666"/>
    </linearGradient>
    <linearGradient id="linear-gradient-10" x1="2710.12" y1="1045.71" x2="2812.23" y2="1029.84" gradientTransform="translate(0 1657.65) scale(1 -1)" gradientUnits="userSpaceOnUse">
      <stop offset="0" stop-color="#995814"/>
      <stop offset="1" stop-color="#ebc344"/>
    </linearGradient>
    <linearGradient id="linear-gradient-11" x1="2990.26" y1="1124.04" x2="3053.9" y2="1096.59" gradientTransform="translate(0 1657.65) scale(1 -1)" gradientUnits="userSpaceOnUse">
      <stop offset="0" stop-color="#d2b152"/>
      <stop offset="1" stop-color="#e3d490"/>
    </linearGradient>
    <linearGradient id="linear-gradient-12" x1="2471.81" y1="796.73" x2="3252.07" y2="796.73" gradientTransform="matrix(1,0,0,1,0,0)" xlink:href="#linear-gradient-9"/>
  </defs>
  <path class="cls-20" d="M2861.94,260.09c-301.57,0-546.04,240.26-546.04,536.64s244.47,536.64,546.04,536.64,546.04-240.26,546.04-536.64-244.47-536.64-546.04-536.64ZM3234.14,1162.04c-48.33,47.5-104.61,84.79-167.28,110.84-64.89,26.97-133.84,40.65-204.92,40.65s-140.04-13.68-204.93-40.65c-62.66-26.05-118.94-63.34-167.27-110.84-48.3-47.47-86.22-102.74-112.7-164.27-27.4-63.67-41.3-131.31-41.3-201.04s13.9-137.37,41.3-201.04c26.48-61.53,64.4-116.8,112.7-164.27,48.33-47.5,104.61-84.79,167.27-110.84,64.89-26.97,133.84-40.65,204.93-40.65s140.03,13.68,204.92,40.65c62.67,26.05,118.95,63.34,167.28,110.84,48.3,47.47,86.22,102.74,112.7,164.27,27.4,63.67,41.29,131.31,41.29,201.04s-13.89,137.37-41.29,201.04c-26.48,61.53-64.4,116.8-112.7,164.27Z"/>
</svg>