<?xml version="1.0" encoding="UTF-8"?>
<svg id="Layer_1" data-name="Layer 1" xmlns="http://www.w3.org/2000/svg" xmlns:xlink="http://www.w3.org/1999/xlink" viewBox="0 0 4538.74 2262.91">
  <defs>
    <style>
      .cls-1 {
        fill: #f1e8a4;
      }

      .cls-2 {
        fill: #233042;
      }

      .cls-3 {
        fill: url(#linear-gradient-2);
      }

      .cls-4 {
        fill: #031b46;
      }

      .cls-5 {
        fill: url(#linear-gradient-10);
      }

      .cls-6 {
        fill: url(#linear-gradient-12);
      }

      .cls-7 {
        fill: #816730;
      }

      .cls-8 {
        fill: #019bdc;
      }

      .cls-9 {
        fill: #ede0a2;
      }

      .cls-10 {
        fill: #7c602c;
      }

      .cls-11 {
        fill: #aa8c46;
      }

      .cls-12, .cls-13 {
        fill: none;
      }

      .cls-14 {
        fill: url(#linear-gradient-4);
      }

      .cls-15 {
        fill: #cca04a;
      }

      .cls-16 {
        fill: #dcc474;
      }

      .cls-17 {
        fill: #bd9c4f;
      }

      .cls-18 {
        fill: url(#linear-gradient-3);
      }

      .cls-19 {
        fill: url(#linear-gradient-5);
      }

      .cls-20 {
        fill: #012351;
      }

      .cls-21 {
        fill: #8d7540;
      }

      .cls-22 {
        fill: url(#linear-gradient-8);
      }

      .cls-23 {
        fill: #101724;
      }

      .cls-24 {
        fill: url(#linear-gradient-7);
      }

      .cls-25 {
        fill: url(#linear-gradient-9);
      }

      .cls-26 {
        fill: #b21311;
      }

      .cls-27 {
        fill: url(#linear-gradient-11);
      }

      .cls-28 {
        fill: #fdfdfe;
      }

      .cls-29 {
        fill: url(#linear-gradient-6);
      }

      .cls-30 {
        fill: #9c8247;
      }

      .cls-31 {
        fill: #f7f8f3;
      }

      .cls-32 {
        fill: #292d34;
      }

      .cls-33 {
        fill: #b37528;
      }

      .cls-34 {
        fill: #d8ba69;
      }

      .cls-13 {
        stroke: #231f20;
        stroke-miterlimit: 10;
      }

      .cls-35 {
        fill: url(#linear-gradient);
      }

      .cls-36 {
        fill: #c31421;
      }

      .cls-37 {
        opacity: .5;
      }

      .cls-38 {
        fill: #daba68;
      }

      .cls-39 {
        fill: #d2a955;
      }

      .cls-40 {
        fill: #1e1810;
      }
    </style>
    <linearGradient id="linear-gradient" x1="2167.54" y1="190.81" x2="2750.12" y2="658.68" gradientTransform="translate(0 1657.65) scale(1 -1)" gradientUnits="userSpaceOnUse">
      <stop offset="0" stop-color="#8b7137"/>
      <stop offset="1" stop-color="#a78a45"/>
    </linearGradient>
    <linearGradient id="linear-gradient-2" x1="3404.81" y1="878.46" x2="2318.32" y2="843.36" gradientTransform="translate(0 1657.65) scale(1 -1)" gradientUnits="userSpaceOnUse">
      <stop offset="0" stop-color="#b98a3b"/>
      <stop offset="1" stop-color="#d2ba6e"/>
    </linearGradient>
    <linearGradient id="linear-gradient-3" x1="2945.53" y1="829.91" x2="2772.01" y2="856.94" gradientTransform="translate(0 1657.65) scale(1 -1)" gradientUnits="userSpaceOnUse">
      <stop offset="0" stop-color="#ba8f34"/>
      <stop offset="1" stop-color="#ddc887"/>
    </linearGradient>
    <linearGradient id="linear-gradient-4" x1="2941.9" y1="963.83" x2="2887.17" y2="948.11" gradientTransform="translate(0 1657.65) scale(1 -1)" gradientUnits="userSpaceOnUse">
      <stop offset="0" stop-color="#e9d372"/>
      <stop offset="1" stop-color="#faf5c7"/>
    </linearGradient>
    <linearGradient id="linear-gradient-5" x1="2945.77" y1="961.57" x2="2871.37" y2="947.29" gradientTransform="translate(0 1657.65) scale(1 -1)" gradientUnits="userSpaceOnUse">
      <stop offset="0" stop-color="#a06022"/>
      <stop offset="1" stop-color="#d2a541"/>
    </linearGradient>
    <linearGradient id="linear-gradient-6" x1="2786.81" y1="933.26" x2="2817.91" y2="933.41" gradientTransform="translate(0 1657.65) scale(1 -1)" gradientUnits="userSpaceOnUse">
      <stop offset="0" stop-color="#c08d3c"/>
      <stop offset="1" stop-color="#e4c666"/>
    </linearGradient>
    <linearGradient id="linear-gradient-7" x1="2926.05" y1="1007.54" x2="2947.46" y2="1083.02" gradientTransform="translate(0 1657.65) scale(1 -1)" gradientUnits="userSpaceOnUse">
      <stop offset="0" stop-color="#d29d45"/>
      <stop offset="1" stop-color="#e4c972"/>
    </linearGradient>
    <linearGradient id="linear-gradient-8" x1="3000.7" y1="1061.42" x2="2952.63" y2="1069.16" gradientTransform="translate(0 1657.65) scale(1 -1)" gradientUnits="userSpaceOnUse">
      <stop offset="0" stop-color="#ae701d"/>
      <stop offset="1" stop-color="#c79037"/>
    </linearGradient>
    <linearGradient id="linear-gradient-9" x1="3247.58" y1="822.81" x2="2654.52" y2="973.55" gradientTransform="translate(0 1657.65) scale(1 -1)" gradientUnits="userSpaceOnUse">
      <stop offset="0" stop-color="#c09443"/>
      <stop offset="1" stop-color="#d3b666"/>
    </linearGradient>
    <linearGradient id="linear-gradient-10" x1="2710.12" y1="1045.71" x2="2812.23" y2="1029.84" gradientTransform="translate(0 1657.65) scale(1 -1)" gradientUnits="userSpaceOnUse">
      <stop offset="0" stop-color="#995814"/>
      <stop offset="1" stop-color="#ebc344"/>
    </linearGradient>
    <linearGradient id="linear-gradient-11" x1="2990.26" y1="1124.04" x2="3053.9" y2="1096.59" gradientTransform="translate(0 1657.65) scale(1 -1)" gradientUnits="userSpaceOnUse">
      <stop offset="0" stop-color="#d2b152"/>
      <stop offset="1" stop-color="#e3d490"/>
    </linearGradient>
    <linearGradient id="linear-gradient-12" x1="2471.81" y1="796.73" x2="3252.07" y2="796.73" gradientTransform="matrix(1,0,0,1,0,0)" xlink:href="#linear-gradient-9"/>
  </defs>
  <g class="cls-37">
    <path class="cls-2" d="M3660.63,430.44c66.51-36,111.1,3.29,155.63,51.97,25.56,6.2,40.76,10.21,65.51,19.32,55.4,26.13,122.28,65.83,162.63,112.91,40.98,40.82,26.19,65.59,47.58,111.07,36.67,77.89,133.86,133.57,47.1,219.14-3.76,3.71-7.6,7.38-11.44,11.01-51.9,69.94-112.39,148.2-204.61,82.2-134.01-95.94-255.77-55.43-379.68,21.74l-7.75-4.99c8.82-8.31,17.23-14.56,18.22-25.67l-7.82-5.74c-32.35-3.91-21.69,3.83-47.77,7.35-52.97,34.69-63,61.51-101.84,93.67-18.37,25.75-38.84,49.93-61.23,72.28-16.19,16.2-32.42,32.33-48.76,48.37l-4.65,2.29c-29.73,28.37-70.79,56.65-106.53,76.88,31.43,14.04,20.14-8.94,51.57,7.36-18.63,6.78-52.82,44.42-80.34,50.47-15.16,3.33-24.23,14.66-33.09,26.98-29.58,9.36-32.76,13.27-50.98,38.74l-9.33,13.38c-30.32,57.21-197.68,345.15-185.76,390.68,30.25,12.11,59.94,16.04,84.84,39.17,33.01,30.68,39.76,67.45,37.81,110.84-40.54-.72-251.6,4.24-274.81-3.35-8.41-59.66-12.25-126.55-42.9-177.32,28.59-92.6,44.56-189.21,69.57-282.14-.41-7.38,4.21-26.6,5.86-34.65-1.18-55.8-8.96-39.83,2.25-95.92-19.03-18.5-107.23-15.37-141.76-27.24-22.02-2.37-48.14-18.89-69.13-21.46-85.39-10.47-152.86-50.96-231.73-81.13-21.35-8.17-69.27-36.96-89.27-39.79-4.07,2.83-7.04,4.81-10.73,8.13l-2.4,2.18c-6.51-18.43-2.18-15.34-16.17-22.45l-.35-4.19c-18.13-33.19-156.47-53.03-195.9-48.53-24.97,2.85-63.96,16.42-88.28,25.13-30.45,15.29-51.02,26.44-78.89,46.56-17.11,16.88-40.81,43.87-56.89,58.27l-6.91,8.22-10.96,12.46c-10.83,9.48-35.63,32.38-46.74,38.78l-39.78,30.75c-72.07,50.53-131.49,87.91-213.1,123.93-115.17,57.16-200.55,53.26-286.76,159.26l-7.01,11.93c-30.94,61.89-43.32,98.86-64.09,163.85,22.73,7.32,42.08,13.76,61.47,28.76,38.12,39.85,40.09,68.07,34.81,120.24-72.12-1.79-159.67,1.96-228.37-1.53-3.63.32-14.14.38-15.87-3.53-22.91-52.08-33.76-104-23.59-160.4.07-41.07-3.83-60.64,19.85-98.09,9.44-14.93,6.69-25.38,22.46-40.62l2.76-9.72c7.86-47.16,41.77-154.38,55.74-209.54,12.59-44.89,28.6-45.47,68.99-61.31,3.33-2.31,44.12-24.48,50.88-28.23,38.89-21.61,64.31-48.8,94.62-81.27,40.41-55.27,51.94-84.36,78.4-146.91,18-56.17,28.55-115.15,44.26-172.27,5.68-31.98,17.43-71.38,26.09-103.39,5.38-8.08,23.17-54.09,28.05-66.27,9.17-23.26,29.31-56.64,42.41-79.09-.91-30.13,14.69-24.22,17.23-45.53l-5.39-2.81-11.99,7.79c-37.19-11.13-35.64,20.9-69,22.17l-36.18,27.95c1.67-9.68,1.75-14.13,1.81-23.98l-6.39,5.29c-10.76-4.46-4.18-2.94-11.77-15.26l-21,1.71c22.39-25.13,127.27-97.96,159.22-111.63,67.44-51.92,267.15-108.5,353.47-113.64,2.45-.89,19.99-3.81,23.72-4.5,208.6-19.46,387.07,32.64,590.47,66.53l26.45,4.67c92.51,10.66,144.34,10.66,235.97,11.67,10.51-2.22,46.63-4.08,59.17-5.02,28.62-3.38,127.52-15.44,148.36-25.01,68.42-31.42,107.82-64,187.64-72.35,64.11-13.28,139.32,31.52,198.19,32.25,101.29,1.28,234.23-15.63,333.31-31.09,10.66-17.79,15.53-25.68,31.28-38.73Z"/>
    <path class="cls-35" d="M1921.13,1141.41c53.15-39.51,282.79-64.33,349.97-40.61,15.63,2.54,26.19,4.63,41.5,8.63,50.87-17.44,230.8,71.43,295.43,76.31,50.06,3.78,90.41,4.43,142.01-4.89,13.72-2.48,38.99-11.39,50.31-10.76,3.21-.97,18.63-9.44,22.57-11.53,8.04-4.07,26.04-15.91,34.53-21.11,9.11,16.15,48.36,12.68,19.59,54.7-1.29,1.9-17.34,31.76-18.66,32.59-44.67,28.31-65.11,259.79-73.66,270.01-18.63-13.41,2.29-73.39-16.34-90.95-4.54,26.48-13.57,74.33-20.69,100.59-1.18-55.8-8.96-39.83,2.25-95.92-19.03-18.5-107.23-15.37-141.76-27.24-22.02-2.37-48.14-18.89-69.13-21.46-85.39-10.47-152.86-50.96-231.73-81.13-21.35-8.17-69.27-36.96-89.27-39.79-4.07,2.83-7.04,4.81-10.73,8.13l-2.4,2.18c-6.51-18.43-2.18-15.34-16.17-22.45l-.35-4.19c-18.13-33.19-156.47-53.03-195.9-48.53-24.97,2.85-63.96,16.42-88.28,25.13-10.72-1-14.68-.42-23.18-6.67,5.64-8.64,24.98-14.01,36.52-18.8.47-5.98-5.39-13.14-8.02-23.17l12.26-5.06-.69-4.02Z"/>
    <path class="cls-31" d="M2188.4,1222.52l6.17-4.84c25.25,5.43,68.08,24.84,92.78,36.02,132.01,59.73,266.72,110.71,412.13,124.76,14.5,1.4,52.71,4.69,64.48,10.26,1.81,5.27,3.5,9.52,4.43,15.08-4.54,26.48-13.57,74.33-20.69,100.59-1.18-55.8-8.96-39.83,2.25-95.92-19.03-18.5-107.23-15.37-141.76-27.24-22.02-2.37-48.14-18.89-69.13-21.46-85.39-10.47-152.86-50.96-231.73-81.13-21.35-8.17-69.27-36.96-89.27-39.79-4.07,2.83-7.04,4.81-10.73,8.13l-2.4,2.18c-6.51-18.43-2.18-15.34-16.17-22.45l-.35-4.19Z"/>
    <path class="cls-32" d="M2312.6,1109.43c50.87-17.44,230.8,71.43,295.43,76.31,50.06,3.78,90.41,4.43,142.01-4.89,13.72-2.48,38.99-11.39,50.31-10.76-144.12,86.29-345.59-19.7-487.75-60.66Z"/>
    <path class="cls-30" d="M2271.1,1100.8c15.63,2.54,26.19,4.63,41.5,8.63,142.16,40.96,343.64,146.95,487.75,60.66,3.21-.97,18.63-9.44,22.57-11.53-1.07,6.06-1.55,16.45-7.16,19.51-145.45,79-299.26,12.91-439.65-41.9-25.23-9.86-88.51-18.96-105.02-35.36Z"/>
    <path class="cls-17" d="M3660.63,430.44c66.51-36,111.1,3.29,155.63,51.97,25.56,6.2,40.76,10.21,65.51,19.32,55.4,26.13,122.28,65.83,162.63,112.91,40.98,40.82,26.19,65.59,47.58,111.07,36.67,77.89,133.86,133.57,47.1,219.14-3.76,3.71-7.6,7.38-11.44,11.01-51.9,69.94-112.39,148.2-204.61,82.2-134.01-95.94-255.77-55.43-379.68,21.74l-7.75-4.99c8.82-8.31,17.23-14.56,18.22-25.67l-7.82-5.74c-32.35-3.91-21.69,3.83-47.77,7.35,17.74-12.88,35.67-25.46,53.82-37.75,45.92-16.65,62.01-42.63,130.39-49.72,26.45-4.78,20.25-19.79,54.59-3.4l2.77,1.34c16.16-1.58,10.25,1.13,22.1-10.38,23.83,3.2,47.55,6.86,71.23,10.98,19.92,5.06,32.87,8.33,52.6,16.1,33.12,13.03,97.79,67.17,131.61,46.31,9.92-6.1,39.73-40.48,48.65-50.58l23.79-31.97c-10.77-21.45-18.26-36.71-31.8-56.75l67.25,5.72c-24.79-45.14-58.17-88.78-82.37-131.96-16.53-29.51-7.05-53.31-35.6-93.4-6.38-2.28-46.4-36.75-55.15-43.11-57.06-41.56-99.48-56.37-166.36-74.95-99.93-123.44-143.86-23.25-99.96,86.74-22.69-18.24-33.35-29.37-48.69-54.38l-7.08-3.63c-2.07-9.48-1.81-18.67-7.19-23.81-77.31,1.67-178.16,18.16-254.92,31.53-18.66,3.25-43.82-6.57-57.32-1.23,13.39,24.04,37.22,61.68,32.72,89.83-4.98-11.86-17.93-33.99-24.53-46.05-11.47-4.23-52.79-27.4-51.49-27.29-.89,12.78-1.62,25.72-.15,38.49l-23.2-28.31c-24.38-24.42-48.99-51.21-82.33-62.79-122.02-42.38-216.71,79.44-301.22,139.11,2.4-33.1,46.26-66.68,70.9-81.37,1.77-1.04-5.09-7.52,2.55-12.05,13.72-8.14,49.06-28.47,56.95-41.9l-3.76-6.19c-12.87,1.22-29.36,19.58-40.06,23.94-36.22,14.8-120.66,36.51-157.1,30.11-11.29-10.04-12.98-10.68-28.03-12.6,28.62-3.38,127.52-15.44,148.36-25.01,68.42-31.42,107.82-64,187.64-72.35,64.11-13.28,139.32,31.52,198.19,32.25,101.29,1.28,234.23-15.63,333.31-31.09,10.66-17.79,15.53-25.68,31.28-38.73Z"/>
    <path class="cls-32" d="M3631.23,521.54c2.55,10.54,4.35,26.92,5.9,38.06l-7.08-3.63c-2.07-9.48-1.81-18.67-7.19-23.81-77.31,1.67-178.16,18.16-254.92,31.53-18.66,3.25-43.82-6.57-57.32-1.23,13.39,24.04,37.22,61.68,32.72,89.83-4.98-11.86-17.93-33.99-24.53-46.05-12.84-18.81-25.93-35.86-39.76-53.93,121.36,1.8,230.95-21.63,352.2-30.77Z"/>
    <path class="cls-11" d="M1849.79,487.53c208.6-19.46,387.07,32.64,590.47,66.53l26.45,4.67c92.51,10.66,144.34,10.66,235.97,11.67,10.51-2.22,46.63-4.08,59.17-5.02,15.05,1.92,16.75,2.56,28.03,12.6,36.44,6.4,120.88-15.31,157.1-30.11,10.7-4.36,27.19-22.73,40.06-23.94l3.76,6.19c-7.89,13.43-43.23,33.77-56.95,41.9-7.64,4.53-.77,11.02-2.55,12.05-24.64,14.7-68.5,48.27-70.9,81.37-14.16,12.59-25.93,21.01-41.2,31.93-7.71-4.64-9.22-5.08-18.11-7.03l-2.21-.46v-11.76c11.99-20.08,44.12-53.73,51.68-71.69l.55-5.75c-18.48-6.23-61.34,7.23-81.74,9.28-186.2,18.77-362.45-13.21-543.89-50.46-94.88-19.48-197.62-41.31-294.83-36.28-84.15,4.92-185.83,19.14-261.95,52.65-7.05,3.11-33.11,32.47-58.36,31.24-.49-.03-12.3,21.37-23.58,27.59-10.03-5.22-12.57-22.17-20.99-22.77-18.04-1.29-47.68,6.47-64.5-.69-7.14-3.04-6.96-3.87-15.05-5.6l-13.62.03c67.44-51.92,267.15-108.5,353.47-113.64,2.45-.89,19.99-3.81,23.72-4.5Z"/>
    <path class="cls-30" d="M1849.79,487.53c208.6-19.46,387.07,32.64,590.47,66.53-13.8,6.75-32.31,5.01-46.81,1.65-120.23-27.87-241.54-33.76-362.37-61.68-44.43-10.27-137.62,8.27-181.3-6.49Z"/>
    <path class="cls-30" d="M1472.6,605.66c67.44-51.92,267.15-108.5,353.47-113.64l-.18,5.92c-31.75,6.84-162.13,29.48-187.03,45.05h5.83s-1.72.47-1.72.47l8.26-.75c-8.92,36.25-56.25,20.14-73.36,27.69-.2,6.2-.33,9.4-2.9,15.24-20.65,8.9-49.74,18.34-72.68,15.52l5.68-2.77c-10.6-.56-12.15,1.45-21.76,7.24l-13.62.03Z"/>
    <path class="cls-30" d="M2466.71,558.73c92.51,10.66,144.34,10.66,235.97,11.67-14.05,5.37-29.69,3.74-40.83,10.86,15.82.28,33.49-.24,48.54,3.99l.04,3.63c-54.78,10.58-184.54-3.59-241.09-15.32l-2.62-14.83Z"/>
    <path class="cls-21" d="M1486.22,605.64c8.09,1.73,7.91,2.56,15.05,5.6,16.82,7.16,46.46-.6,64.5.69,8.42.6,10.96,17.55,20.99,22.77,11.28-6.22,23.08-27.62,23.58-27.59,25.25,1.23,51.31-28.13,58.36-31.24,76.12-33.51,177.8-47.73,261.95-52.65,97.22-5.03,199.96,16.79,294.83,36.28,181.44,37.26,357.69,69.23,543.89,50.46,20.4-2.05,63.26-15.51,81.74-9.28l-.55,5.75c-99.15,12.89-197.57,21.72-298.75,14.58-265.23-18.72-549.52-145.99-809.81-54.2-19.98,7.05-69.01,27.1-82.47,41.72-61.78,30.39-146.48,119.59-175.23,183.58-49.78,89.75-65.77,169.79-88.92,268.65-8.11,34.62-19.25,87.66-32.24,119.58-5.3,20.84-19.49,50.58-30.44,69.24-25.72,31.26-48.38,81.99-97.81,72.48l5.83-9.73-3.88-4.43c40.41-55.27,51.94-84.36,78.4-146.91,18-56.17,28.55-115.15,44.26-172.27,5.68-31.98,17.43-71.38,26.09-103.39,5.38-8.08,23.17-54.09,28.05-66.27,9.17-23.26,29.31-56.64,42.41-79.09-.91-30.13,14.69-24.22,17.23-45.53l-5.39-2.81-11.99,7.79c-37.19-11.13-35.64,20.9-69,22.17l-36.18,27.95c1.67-9.68,1.75-14.13,1.81-23.98l-6.39,5.29c-10.76-4.46-4.18-2.94-11.77-15.26l-21,1.71c22.39-25.13,127.27-97.96,159.22-111.63l13.62-.03Z"/>
    <path class="cls-7" d="M1315.25,1160.99l7.72,5.04c9.5-8.96,10.06-25.12,10.47-38.02,18.64-6.65,6.17,14.63,25.56-16.5,2.55,23.16-.37,51.79,4.15,68.83-5.3,20.84-19.49,50.58-30.44,69.24-25.72,31.26-48.38,81.99-97.81,72.48l5.83-9.73-3.88-4.43c40.41-55.27,51.94-84.36,78.4-146.91Z"/>
    <path class="cls-7" d="M1413.65,819.06c11.24.06,22.48.02,33.71-.11,5.61,13.2-45.06,173.7-52.36,205.78-5.56-12.18,4.41-35.74-3.66-43.42-9.12.59-7.72-.98-12.87,3.91l1.3-3.81-3.89-2.22c-5.37,7.79-6.12,8.62-16.38,9.53,5.68-31.98,17.43-71.38,26.09-103.39,5.38-8.08,23.17-54.09,28.05-66.27Z"/>
    <path class="cls-32" d="M1561.03,619.33c-38.81,39.64-73.26,74.57-104.97,120.63-.91-30.13,14.69-24.22,17.23-45.53l-5.39-2.81-11.99,7.79c-37.19-11.13-35.64,20.9-69,22.17,59.49-45.4,106.46-70.94,174.12-102.26Z"/>
    <path class="cls-11" d="M3099.29,1325.67l24.53-6.86,6.16,3.71c.11,6.12.15,12.23.04,18.34l2.95,1.67c11.8-1.08,30.8-12.35,42.27-18.29,31.43,14.04,20.14-8.94,51.57,7.36-18.63,6.78-52.82,44.42-80.34,50.47-15.16,3.33-24.23,14.66-33.09,26.98-29.58,9.36-32.76,13.27-50.98,38.74l-9.33,13.38c-30.32,57.21-197.68,345.15-185.76,390.68,30.25,12.11,59.94,16.04,84.84,39.17,33.01,30.68,39.76,67.45,37.81,110.84-40.54-.72-251.6,4.24-274.81-3.35,19-6.97,171.82-17.38,197.79-19.68l4.35-5.32c2.95-78.91-39.39-41.14-84.47-56.62-84.58-29.01,28.66-258.13,69.2-287.11,6.16-9.04,11.36-17.33,17.08-26.63,1.7-5.42,13.28-29.77,16.27-36.34,24.86-35.56,43.86-93.4,76.39-130.68l4.2-7.83,4.39-5.56c15.23-28.79,36.52-52.79,58.83-76.15,4.8-8.47,12.65-14.34,20.1-20.91Z"/>
    <path class="cls-32" d="M2715.15,1998.5c19-6.97,171.82-17.38,197.79-19.68l4.35-5.32c2.95-78.91-39.39-41.14-84.47-56.62-84.58-29.01,28.66-258.13,69.2-287.11-16.53,41.15-63.41,116.59-71.82,148-16.53,35.65-12.65,85.42-11.84,124.85,78.75,8.7,115.9,4.89,121.95,96.06-75.07.53-150.13.46-225.16-.19Z"/>
    <path class="cls-30" d="M2902.02,1629.77c6.16-9.04,11.36-17.33,17.08-26.63-4.28,34.51-63.67,158.4-88.9,174.63,8.41-31.41,55.29-106.85,71.82-148Z"/>
    <path class="cls-30" d="M3079.18,1346.58c-7.19,29.99-29.29,64.85-58.83,76.15,15.23-28.79,36.52-52.79,58.83-76.15Z"/>
    <path class="cls-10" d="M1236.85,1307.89l3.88,4.43-5.83,9.73c49.43,9.51,72.09-41.22,97.81-72.48-54.16,120.76-145.25,183.36-262.25,232.39l-98.16,209.71-5.68-3.44c7.86-47.16,41.77-154.38,55.74-209.54,12.59-44.89,28.6-45.47,68.99-61.31,3.33-2.31,44.12-24.48,50.88-28.23,38.89-21.61,64.31-48.8,94.62-81.27Z"/>
    <path class="cls-7" d="M1022.37,1478.7c12.59-44.89,28.6-45.47,68.99-61.31-7.06,15.85-7.3,5.7-8.71,18.49,10.38,15.85,26.55,11.95,44.41,12.05-25.2,19.2-41.81,14.55-74.32,46.3-18.87-4.19-20.55-1.63-30.37-15.54Z"/>
    <path class="cls-30" d="M1928.14,992.84c24.85-21.42,43.23-128.27,61.87-161.17,9.56,16.17-12.23,123.44-16.74,145.87-7.32,36.39-65.96,135.96-65,157.25l12.86,6.62.69,4.02-12.26,5.06c2.62,10.03,8.49,17.19,8.02,23.17-11.54,4.79-30.89,10.15-36.52,18.8,8.49,6.25,12.46,5.67,23.18,6.67-30.45,15.29-51.02,26.44-78.89,46.56-2.45-3.05-4.85-6.15-7.2-9.28l-4.85,1.05c-18.54-8.94-12.95-14.41-29.33-21.81,17.92-26.59,51.79-60.86,71.25-90.09,28.84-43.3,48.45-87.43,72.95-132.72Z"/>
    <path class="cls-10" d="M1137.19,1628.8c63.22-78.54,175.59-113.05,270.51-145.66,27.16,17.33,53.8-3.68,43.25,34.94-115.17,57.16-200.55,53.26-286.76,159.26l-7.01,11.93c-11.65,2.96-9.9,3.82-19.14,12.49-9.24-.35-13.79-8.3-22.22-16.56,16.22-22.96,20.94-25.55,31.14-52.39l-9.78-4.02Z"/>
    <path class="cls-7" d="M1137.19,1628.8l9.78,4.02c-10.2,26.84-14.92,29.43-31.14,52.39,8.43,8.26,12.98,16.22,22.22,16.56,9.24-8.67,7.49-9.53,19.14-12.49-30.94,61.89-43.32,98.86-64.09,163.85,22.73,7.32,42.08,13.76,61.47,28.76-7.55,11.75-8.59,13.23-21.56,18.91-6.28,8.37-6.15,13.46-7.81,23.73-39.36-22.06-49.99-21.5-94.37-26.72,20.36-79.55,50.13-206.71,106.37-268.99Z"/>
    <path class="cls-32" d="M1659.53,608.53c13.46-14.61,62.49-34.67,82.47-41.72,260.29-91.8,544.58,35.47,809.81,54.2,101.18,7.14,199.59-1.69,298.75-14.58-7.56,17.96-39.69,51.6-51.68,71.69l-15.79,18.88c2.95-26.88,20.36-24.49,17.63-60.81-5.53-6.63-9.37-9.99-19.81-10.06-53.56-.33-102.66,12.83-157.88,10.89-41.68-.69-84.1-9.96-125.6-14.07-242.53-23.97-491.63-124.89-735.08-55.11-24.87,7.13-81.41,43.04-102.83,40.69Z"/>
    <path class="cls-21" d="M2857.46,1137.45c46.48-42.14,87.27-90.18,121.28-142.89-29.66,78.19-51.16,121.75-89.38,196.37-69.35,105.57-78.38,205.37-97.6,326.91-3.95,25.03-14.5,73.78-15.94,95.08l-3.69-1.73c-2.73-23.29-.44-43.24-22.76-52.89-4.94-2.15-6.01-13.12-7.56-19.26-.41-7.38,4.21-26.6,5.86-34.65,7.12-26.26,16.16-74.11,20.69-100.59,18.63,17.55-2.29,77.54,16.34,90.95,8.56-10.22,28.99-241.7,73.66-270.01,1.33-.83,17.37-30.69,18.66-32.59,28.77-42.02-10.48-38.55-19.59-54.7Z"/>
    <path class="cls-7" d="M1629.89,1354.89l7.31,6.27c-2.5,6.89-2.4,6.42-7.51,11.76l2.96,6.49c7.87.3,9.11-.46,16.32-2.87l1.57,2.74c4.62,7.9,5.42,11.07,13.5,14.87-72.07,50.53-131.49,87.91-213.1,123.93,10.54-38.62-16.1-17.61-43.25-34.94,88.92-38.57,144.27-74.04,222.19-128.26Z"/>
    <path class="cls-11" d="M3267.16,617.44c-1.48-12.77-.74-25.71.15-38.49-1.29-.11,40.02,23.06,51.49,27.29,6.6,12.07,19.55,34.2,24.53,46.05,39.17,101.51,37.07,170.4,19.37,276.68-6.46-10.98-11.47-96.6-17.63-124.24-14.53-60.59-27.08-104.41-59.5-157.19l-18.41-30.1Z"/>
    <path class="cls-7" d="M1783.95,1215.64c16.38,7.4,10.79,12.87,29.33,21.81l4.85-1.05c2.35,3.14,4.74,6.23,7.2,9.28-17.11,16.88-40.81,43.87-56.89,58.27l-6.91,8.22-10.96,12.46c-10.83,9.48-35.63,32.38-46.74,38.78l-39.78,30.75c-8.09-3.8-8.88-6.96-13.5-14.87l-1.57-2.74c-7.21,2.4-8.45,3.17-16.32,2.87l-2.96-6.49c5.11-5.34,5.01-4.87,7.51-11.76l-7.31-6.27,4.88-3.46c19.62-16.51,45.88-35.67,66.57-51.7,11.63-10.6,24.17-21.16,36.09-31.5,4.99-9.49,37.18-42.59,46.51-52.58Z"/>
    <path class="cls-21" d="M1783.95,1215.64c16.38,7.4,10.79,12.87,29.33,21.81l4.85-1.05c2.35,3.14,4.74,6.23,7.2,9.28-17.11,16.88-40.81,43.87-56.89,58.27,5.53-13.33,8.59-24.4,1.45-38.07-18.01-9.05-17.55,1.23-32.45,2.35,4.99-9.49,37.18-42.59,46.51-52.58Z"/>
    <path class="cls-21" d="M1634.78,1351.43c32.6-6.77,39.59,10.24,64.32,6.68l4.73,5.3-39.78,30.75c-8.09-3.8-8.88-6.96-13.5-14.87l-1.57-2.74c-7.21,2.4-8.45,3.17-16.32,2.87l-2.96-6.49c5.11-5.34,5.01-4.87,7.51-11.76l-7.31-6.27,4.88-3.46Z"/>
    <path class="cls-32" d="M1484.3,792.11c1.89,16.16-41.37,114.1-47.93,138.26-41.39,152.49-53.51,291.54-154.72,420.87-62.5,79.86-124.81,97-206.42,146.77-14.56,8.88-35.09,101.07-57.19,119.51-10.62,12.93-22.51,66.08-36.57,83.63-4.18-3.8-5.83-4.83-9.17-9.47l98.16-209.71c117-49.03,208.08-111.63,262.25-232.39,10.95-18.66,25.13-48.4,30.44-69.24,12.99-31.91,24.13-84.95,32.24-119.58,23.15-98.86,39.14-178.89,88.92-268.65Z"/>
    <path class="cls-11" d="M3682.47,943.28c-54.11-66.81-54.04-111.06-27.19-188.85.41,36.6,5.31,70.34,21.36,103.54,14.24,36.4,47.95,63.02,85.28,72.87-11.84,11.52-5.94,8.8-22.1,10.38l-2.77-1.34c-34.34-16.39-28.14-1.38-54.59,3.4Z"/>
    <path class="cls-10" d="M1154.57,1881.88c38.12,39.85,40.09,68.07,34.81,120.24-72.12-1.79-159.67,1.96-228.37-1.53,28.49-4.62,147.98-2.6,180.11-2.49-.28-31.13.91-48.19-15.93-73.59,1.66-10.27,1.53-15.36,7.81-23.73,12.97-5.68,14.02-7.16,21.56-18.91Z"/>
    <path class="cls-32" d="M2889.36,1190.92c2.47,19.92-43.75,98.79-51.13,124.89-21.21,75.24-28.18,154.35-41.46,231.28-3.8,21.98,4.54,66.43-14.57,72.94l-6.38-7.12c1.44-21.29,11.99-70.05,15.94-95.08,19.22-121.54,28.25-221.34,97.6-326.91Z"/>
    <path class="cls-21" d="M1928.14,992.84c30.3-82.93,47.89-151.72,69.2-237.24l4.83-2.69c-1.63,72.79-3.77,124.92-16.81,197.94-16.17,61.62-40.27,131.19-77.1,183.93-.97-21.28,57.68-120.86,65-157.25,4.51-22.43,26.3-129.69,16.74-145.87-18.64,32.9-37.01,139.74-61.87,161.17Z"/>
    <path class="cls-32" d="M3196.26,1245.07c2.25,12.04,2.36,17.99,11.14,26.88,29.8,9.04,45-18.33,74.36-24.59-29.73,28.37-70.79,56.65-106.53,76.88-11.47,5.94-30.47,17.21-42.27,18.29l-2.95-1.67c20.1-21.03,49.43-69.37,66.25-95.8Z"/>
    <path class="cls-32" d="M2935.36,1566.8c-5.68-45.16,144.45-275.34,200.74-277.51-10.44,10.18-27.63,25.88-36.81,36.38-7.45,6.57-15.31,12.44-20.1,20.91-22.32,23.36-43.6,47.35-58.83,76.15l-4.39,5.56-4.2,7.83c-32.53,37.28-51.53,95.12-76.39,130.68Z"/>
    <path class="cls-32" d="M3396.41,1124.42c-2.03-8.16,3.39-17.19,8.19-23.52,33.38-44.23,92.18-97.55,147.47-107.9-18.15,12.28-36.08,24.87-53.82,37.75-52.97,34.69-63,61.51-101.84,93.67Z"/>
    <path class="cls-21" d="M3215.26,1209.88c-5.42,11.07-12.98,24.15-19,35.19-16.82,26.43-46.15,74.76-66.25,95.8.11-6.12.07-12.23-.04-18.34l-6.16-3.71-24.53,6.86c9.18-10.49,26.37-26.2,36.81-36.38,38.77-30.32,49.24-40.22,79.16-79.41Z"/>
    <path class="cls-32" d="M2002.17,752.91l6.35-2.57c15.3,25.42-3.95,188.41-23.15,200.51,13.03-73.02,15.18-125.15,16.81-197.94Z"/>
    <path class="cls-32" d="M3676.64,857.96c29.88,19.66,48.14,56.83,91.77,59.51,20.62,1.27,52.86,4.99,64.74,24.35-23.68-4.12-47.4-7.78-71.23-10.98-37.33-9.85-71.04-36.47-85.28-72.87Z"/>
    <path class="cls-31" d="M921.55,1836.66c.07-41.07-3.83-60.64,19.85-98.09,9.44-14.93,6.69-25.38,22.46-40.62-8.51,39.01-29.93,98.26-42.31,138.71Z"/>
    <path class="cls-32" d="M3362.7,928.97c-.96,10.73.44,14.95-5.31,22.63-11.47-19.96-18.07-123.85-12.32-146.87,6.16,27.64,11.18,113.25,17.63,124.24Z"/>
    <path class="cls-32" d="M3243.96,589.12l23.2,28.31,18.41,30.1c-.74-.02-1.48-.04-2.18-.07-45.59-16.26-50.98-17.67-39.43-58.35Z"/>
    <path class="cls-17" d="M2798.88,678.12v11.76l2.21.46c8.89,1.95,10.4,2.39,18.11,7.03-22.65,15.07-44.89,30.83-66.58,47.26,9.07-13.21,24.16-33.74,30.47-47.64l15.79-18.88Z"/>
    <path class="cls-2" d="M1386.91,721.59c33.35-1.27,31.81-33.31,69-22.17l11.99-7.79,5.39,2.81c-2.54,21.31-18.14,15.4-17.23,45.53-13.09,22.45-33.24,55.83-42.41,79.09-4.89,12.18-22.67,58.2-28.05,66.27-29.82,24.79-71.54,56.12-99.18,80.94,8.4,6.86,8.03,4.27,8.89,12.19-14.87,24.02-43.88,28.76-43.67,48.76l12.25-3.21c-8.07,11.82-35.89,7.54-45.07,16.88-23.44,23.88-43.19,61.41-70.09,81.93-16.79,12.81-10.42,20.4-20.63,32.5-10.77.02-20.99-1-30.71,3.05l-8.59-1.82c-77.49,67.84-163.04,137.93-261.14,172.94l-11.73,3.08c-158.68,45.56-281.8,21.02-392.71-105.55-43.18-8.38-41.28-32.38-38.62-70.9-36.33-97.4-22.6-203.05,36.82-288.31,46.49-67.7,118.21-113.91,199.08-128.26,28.92-5.01,65.98-7.97,90.88,10.6,28.55,21.29,36.22,69.84,13.58,98.14-24.29,30.37-54.47,31.31-89.97,35.3-49.99,22.65-82.91,50.31-102.96,102.79-31.67,82.92,13.52,171.65,96.39,199.99,55.32,18.92,103.56,8.9,157.47-5.46,29.35-20.38,70.89-31.99,110.86-64.46,79.19-64.33,144.13-141.65,217.5-210.98,21.5-25.28,48.52-51.72,72.67-74.41,35.43-35.76,86.54-85.72,126.47-113.77l21-1.71c7.59,12.32,1.01,10.8,11.77,15.26l6.39-5.29c-.06,9.86-.14,14.3-1.81,23.98l36.18-27.95Z"/>
    <path class="cls-10" d="M1186.91,831.07c35.43-35.76,86.54-85.72,126.47-113.77l21-1.71c7.59,12.32,1.01,10.8,11.77,15.26l6.39-5.29c-.06,9.86-.14,14.3-1.81,23.98l-59.48,48.71c-49.82,46.06-157.23,149.39-198.23,200.04-73.66,66.95-210.75,223.66-316.3,235.99-89.07,24.3-187.21,18.74-251.99-57.87-66.15-78.24-61.24-195.52,19.1-262.46,22.91-19.09,60.58-33.53,91.15-30.36-49.99,22.65-82.91,50.31-102.96,102.79-31.67,82.92,13.52,171.65,96.39,199.99,55.32,18.92,103.56,8.9,157.47-5.46,29.35-20.38,70.89-31.99,110.86-64.46,79.19-64.33,144.13-141.65,217.5-210.98,21.5-25.28,48.52-51.72,72.67-74.41Z"/>
    <path class="cls-7" d="M1186.91,831.07c17.07-7.2,11.45-7.67,27.52-3.93,25.86,35.09-58.89,93.02-100.19,78.34,21.5-25.28,48.52-51.72,72.67-74.41Z"/>
    <path class="cls-7" d="M1067.22,963.9l6.49,2.75c8.56,17.14-8.88,38.55-23.88,46.15-11.69-5.27-8.41-1.91-13.57-11.99,3.35-12.74,20.76-27.09,30.96-36.91Z"/>
    <path class="cls-31" d="M1286.42,966.27c8.4,6.86,8.03,4.27,8.89,12.19-14.87,24.02-43.88,28.76-43.67,48.76l12.25-3.21c-8.07,11.82-35.89,7.54-45.07,16.88-23.44,23.88-43.19,61.41-70.09,81.93-16.79,12.81-10.42,20.4-20.63,32.5-10.77.02-20.99-1-30.71,3.05l-8.59-1.82c28.61-32.5,94.41-93,127.8-126.3l41.59-40.4,28.22-23.58Z"/>
    <path class="cls-32" d="M1291.25,798.25c1.13,27.11-166.37,186.73-198.23,200.04,41.01-50.65,148.42-153.98,198.23-200.04Z"/>
    <path class="cls-31" d="M384.6,1156.12c13.01,31.76,20.25,41.88,38.62,70.9-43.18-8.38-41.28-32.38-38.62-70.9Z"/>
    <path class="cls-32" d="M815.94,1332.58l6.96-11.11c-14.65-3.61-21.79,8.36-39.02,2.37-7.18-8.54-6.06-4.84-7.09-14.85,13.38-1.75,32.95-5.82,44.86-1.14,7.92,10.99,5.82,5.84,6.02,21.64l-11.73,3.08Z"/>
    <path class="cls-32" d="M1216.61,1030.26l-7.77-10.67c3.13-26.13,30.55-25.64,43.31-32.36l6.06,2.63-41.59,40.4Z"/>
    <path class="cls-32" d="M707.61,831.74l.08,10.34c-4.66,11.56-16.17,19.02-26.08,26.95l-.89-6.6c7.13-12.6,16.53-20.62,26.89-30.7Z"/>
    <path class="cls-2" d="M1904.22,1199.12c24.32-8.71,63.31-22.28,88.28-25.13,39.44-4.5,177.78,15.33,195.9,48.53l.35,4.19c-5.58,37.94-12.68,70.22-21,107.45,1.42,3.94,3.23,8.92,5.41,14.95-6.96,29.96-26.1,85.11-33.96,112.66-3.29,11.56-46.13,62.64-51.98,75.36-21.44,46.61-37.14,77.22-63.43,120.46-.4,5.13-2.52,30.27-.68,33.27,29.61,48.32,70.57,91.17,105.49,135.94,33.59,43.07,120.14,6.32,169.66,30.97,4.21,7.93,4.03,9.64,5.36,18.7,7.82,5.38,9.67,4.77,19.59,5.31l-14.51,3.81c22.14,49.38,33.73,38.62,26.42,94.87l-.74,16.08c-14.61,11.98-241.69,1.66-275.69,4.57-1.43-.24-2.86-.48-4.29-.72-25.49-21.97-54.95-55.57-81.42-79.97-13.6-6.24-26.28-7.87-40.95-10.59-.63-2.62-1.28-5.22-1.97-7.82-8.8-32.54-15.36-10.58-35.02-21.84,11.47-39.51-19.59-14.66-31.05-45.65,6,.22,9.12,4.23,15.08,8.56l1.86-2.28c0-2.46-.52-6.26-.79-8.81-5.17-2.29-7.57-3.45-12.42-6.34l7.1-6.85c-9.52-10-24.19-23.59-32.25-33.94-32.78-42.12-119.64-96.64-69.07-155.74,4.09-21.42,14.29-48.89,19.59-75.28,13.18-85.42-.48-154.9-42.55-229.19l10.96-12.46,6.91-8.22c16.08-14.4,39.78-41.38,56.89-58.27,27.88-20.12,48.44-31.28,78.89-46.56Z"/>
    <path class="cls-7" d="M2072.55,1868.33c-6.27-16.57-12.32-26.33-2.01-42,16.98-3.59,21.26.12,33.59,10.18l6.25-.9c15.2,11.16,26.82,20.2,43.87,28.81,54.83-3.47,93.97-13.47,137.63,27.89,27.18,27.82,35.4,49.79,43.26,88.14l-.74,16.08c-14.61,11.98-241.69,1.66-275.69,4.57-1.43-.24-2.86-.48-4.29-.72,35.5-5.2,187.98-2,231.38-1.87-.9-5.91-2.03-11.79-3.38-17.61-8.76-38.23-17.81-47.8-50.17-68.31-8.79,1.86-63.12.01-74.01-.45-28.84-1.22-67.74-20.55-85.69-43.81Z"/>
    <path class="cls-31" d="M2167.75,1334.16c1.42,3.94,3.23,8.92,5.41,14.95-6.96,29.96-26.1,85.11-33.96,112.66-3.29,11.56-46.13,62.64-51.98,75.36-21.44,46.61-37.14,77.22-63.43,120.46-.4,5.13-2.52,30.27-.68,33.27,29.61,48.32,70.57,91.17,105.49,135.94,33.59,43.07,120.14,6.32,169.66,30.97,4.21,7.93,4.03,9.64,5.36,18.7,7.82,5.38,9.67,4.77,19.59,5.31l-14.51,3.81c22.14,49.38,33.73,38.62,26.42,94.87-7.86-38.36-16.08-60.32-43.26-88.14-43.67-41.36-82.8-31.36-137.63-27.89-17.05-8.61-28.67-17.65-43.87-28.81-5.01-11.46-56.22-72.57-68.07-88.08-59.98-81.98-19.68-126.24,25.88-201.65,30.02-32.27,78.65-151.72,95.86-195.57l3.71-16.13Z"/>
    <path class="cls-21" d="M2119.58,1313.49c15.5,9.48,34.87,21.58,44.46,36.8-17.21,43.85-65.84,163.3-95.86,195.57-14.95,1.82-29.55,16.67-37.51,28.67l-4.47-7.64,1.53,7.2c-7.92-23.73,3.71-26.34-8.28-44.82,2.89-9.18,40.25-70.05,48.16-84.71,25.11-46.51,37.49-80.38,51.97-131.07Z"/>
    <path class="cls-7" d="M1983.44,1754.45c-10.84-18.47-18.09-38.83-21.38-59.99-9.37-62.76,21.65-116.53,57.4-165.18,11.99,18.48.36,21.09,8.28,44.82l-1.53-7.2,4.47,7.64c7.96-12,22.57-26.85,37.51-28.67-45.56,75.42-85.86,119.67-25.88,201.65-8.02,14.01-5.26,14.64-17.33,19.3-16.46-2.97-24.4-8.36-41.53-12.38Z"/>
    <path class="cls-10" d="M2042.3,1747.52c11.86,15.51,63.07,76.62,68.07,88.08l-6.25.9c-12.33-10.06-16.61-13.76-33.59-10.18-10.3,15.68-4.26,25.44,2.01,42-12.53-10.44-76.81-96.96-89.11-113.88,17.13,4.02,25.07,9.41,41.53,12.38,12.07-4.66,9.32-5.29,17.33-19.3Z"/>
    <path class="cls-31" d="M1874.85,1818.77c23.22,23.84,79.3,78.38,98.16,101.63-13.6-6.24-26.28-7.87-40.95-10.59-.63-2.62-1.28-5.22-1.97-7.82-8.8-32.54-15.36-10.58-35.02-21.84,11.47-39.51-19.59-14.66-31.05-45.65,6,.22,9.12,4.23,15.08,8.56l1.86-2.28c0-2.46-.52-6.26-.79-8.81-5.17-2.29-7.57-3.45-12.42-6.34l7.1-6.85Z"/>
    <path class="cls-2" d="M3498.26,1030.75c26.08-3.52,15.42-11.26,47.77-7.35l7.82,5.74c-1,11.11-9.41,17.36-18.22,25.67l7.75,4.99c-19.14,14.88-39.54,30.21-57.91,45.87,8.96,113.1-6.86,166.01-10.18,265.97,13.35,17.44,27.89,35.49,39.32,54.13,5.72,7,11.43,13.7,16.49,21.18l80.08,118.18c47.62,72.55,160.9,267.26,246.26,289.95,38.58,10.26,91.66-6.43,132.13,52.45,1.36,1.98,2.69,4,3.95,6.05,19.59,28.81,25.53,53.23,30.25,87.83l-47.84-.58c-25.01,3.43-216.78,2.33-233.79-2.46l-19.44-21.34c-12.36-9.42-50.02-54.08-64.22-69.39-26.15.22-35.41,9.76-63.56-2.77-8.67-39.24-22.83-16.66-38.03-43.09,4.65-3.22,6.49-3.83,9.18-8.76-9.44-6.9-18.37-6.01-30.39-6.75-5.35-8.65-4.46-4.12-3.1-13.98,4.46,3.98,6.05,6.34,11.95,6.73-3.28-24.68-20.8-10.1-37.51-24.77l.66-3.18c8.71,1.95,13.68,4.77,20.55,1.73-3.47-10.78-12.25-21.49-22.91-25.72l2.21,14.58-2.25.51c-5.39-11.88-11.73-29.96-21.95-37.51l-.77-9.94c-9.96-13.48-38.66-38.22-51.97-49.97-38.44-34.22-77.94-67.28-118.37-99.13-24.16-18.75-85.87-62.7-102.25-81.96-25.19-29.6-49.65-85.74-74.95-122.93l-21.62,8.29c8.85-12.32,17.93-23.64,33.09-26.98,27.52-6.05,61.71-43.69,80.34-50.47-31.43-16.3-20.14,6.68-51.57-7.36,35.74-20.22,76.8-48.51,106.53-76.88l4.65-2.29c16.34-16.04,32.57-32.17,48.76-48.37,22.39-22.34,42.86-46.52,61.23-72.28,38.84-32.16,48.88-58.98,101.84-93.67Z"/>
    <path class="cls-11" d="M3498.26,1030.75c26.08-3.52,15.42-11.26,47.77-7.35l7.82,5.74c-1,11.11-9.41,17.36-18.22,25.67l7.75,4.99c-19.14,14.88-39.54,30.21-57.91,45.87,8.96,113.1-6.86,166.01-10.18,265.97,13.35,17.44,27.89,35.49,39.32,54.13,5.72,7,11.43,13.7,16.49,21.18l80.08,118.18-7.64,7.13c-5.53-4.81-56.22-38.21-62.56-40.91l-4.87,2.98.89,14.25c-14.05-20.45-56.84-84.28-72.59-99.03l-.18-6.24c-10.25-9.67-23.02-29.64-31.46-41.83-14.87-19.29-7.78-49.51-4.94-72.48,6.46-51.81,9.81-102.31,11.58-154.36l-1.44-12.5-3.21-1.94-8.89,8.51c-23.68,15.78-61.01,57.06-83.66,62-15.05-7.98-10.96-15.72-7.75-30.51l.74-3.49c22.39-22.34,42.86-46.52,61.23-72.28,38.84-32.16,48.88-58.98,101.84-93.67Z"/>
    <path class="cls-30" d="M3535.62,1054.8l7.75,4.99c-19.14,14.88-39.54,30.21-57.91,45.87,8.96,113.1-6.86,166.01-10.18,265.97,13.35,17.44,27.89,35.49,39.32,54.13-5.24-1.28-9.41-3.29-14.35-5.4-9.44-11.43-35.08-42.14-33.57-55.6,9.89-88.17,10-173.95,12.25-262.4,11.8-14.84,40.61-37.65,56.7-47.55Z"/>
    <path class="cls-17" d="M3536.99,1548.57l-.89-14.25,4.87-2.98c6.34,2.7,57.03,36.1,62.56,40.91l7.64-7.13c47.62,72.55,160.9,267.26,246.26,289.95,38.58,10.26,91.66-6.43,132.13,52.45,1.36,1.98,2.69,4,3.95,6.05,19.59,28.81,25.53,53.23,30.25,87.83l-47.84-.58c-25.01,3.43-216.78,2.33-233.79-2.46,63,3.97,165.07.45,230.95.09-22.06-99.59-51.49-74.43-123.5-92.94-120.36-30.96-247.29-261.58-312.58-356.94Z"/>
    <path class="cls-11" d="M3993.5,1913.57c19.59,28.81,25.53,53.23,30.25,87.83l-47.84-.58c.04-22.2,7.01-68.3,17.59-87.26Z"/>
    <path class="cls-30" d="M3335.18,1196.7l-.74,3.49c-3.21,14.78-7.3,22.53,7.75,30.51,22.65-4.94,59.98-46.22,83.66-62-11.51,14.51-23.09,28.95-34.75,43.33-55.66,55.45-92.81,95.5-161.71,136.46-14.64,8.69-88.68,47.65-94.39,52.27l-21.62,8.29c8.85-12.32,17.93-23.64,33.09-26.98,27.52-6.05,61.71-43.69,80.34-50.47-31.43-16.3-20.14,6.68-51.57-7.36,35.74-20.22,76.8-48.51,106.53-76.88l4.65-2.29c16.34-16.04,32.57-32.17,48.76-48.37Z"/>
    <path class="cls-17" d="M3286.41,1245.07c29.92,7.44,18.22,17.58,39.32,11.61-6.34,10.27-80.56,66.32-94.32,75.5l-4.61-.58c-31.43-16.3-20.14,6.68-51.57-7.36,35.74-20.22,76.8-48.51,106.53-76.88l4.65-2.29Z"/>
    <path class="cls-31" d="M3482.54,1754.74c38.03,27.82,96.38,97.07,126.48,134.71,17.78,5.68,32.39,10.03,49.43,18.17-26.15.22-35.41,9.76-63.56-2.77-8.67-39.24-22.83-16.66-38.03-43.09,4.65-3.22,6.49-3.83,9.18-8.76-9.44-6.9-18.37-6.01-30.39-6.75-5.35-8.65-4.46-4.12-3.1-13.98,4.46,3.98,6.05,6.34,11.95,6.73-3.28-24.68-20.8-10.1-37.51-24.77l.66-3.18c8.71,1.95,13.68,4.77,20.55,1.73-3.47-10.78-12.25-21.49-22.91-25.72l2.21,14.58-2.25.51c-5.39-11.88-11.73-29.96-21.95-37.51l-.77-9.94Z"/>
    <path class="cls-32" d="M3722.67,1977.02l8.89-3.54c10.51,8.73,11.51,17.7,24.6,11.51,51.97-24.59,135.85-1.7,188.57-5.23l.15,8.31c-49.06,15.24-175.69-3.69-202.77,10.29l-19.44-21.34Z"/>
    <path class="cls-32" d="M3425.85,1168.69l8.89-8.51,3.21,1.94,1.44,12.5c-1.77,52.05-5.13,102.55-11.58,154.36-2.84,22.97-9.92,53.19,4.94,72.48,8.45,12.19,21.21,32.16,31.46,41.83l.18,6.24c-4.94-1.38-5.31-.58-8.26-3.27-59.72-54.54-40.83-97.79-30.73-167.89,4.13-28.52,3.73-66.89,3.47-97.05-11.43,11.73-22.54,25.24-37.77,30.69,11.66-14.38,23.24-28.82,34.75-43.33Z"/>
  </g>
  <g>
    <g>
      <path class="cls-3" d="M2329.44,677.48c31.77-137.84,117.32-257.27,237.61-331.7,127.83-78.4,281.61-102.68,427.38-67.47,139.4,32.87,260.12,119.59,335.75,241.22,73.83,121.54,96.37,267.42,62.66,405.58-33.73,135.79-119.95,252.65-239.73,324.97-126.92,76.53-278.91,99.92-422.97,65.09-140.28-32.65-261.75-119.89-337.51-242.38-57.98-95.36-84.26-206.63-75.07-317.85.93-11.69,5.84-58.99,9.85-67.17.32-2.95,1.38-7.27,2.04-10.27Z"/>
      <path class="cls-34" d="M2329.44,677.48c1.9,2.81,3.03,3.87,5.62,5.92-2.5,2.18-2.96,2.53-5.95,3.93l-.79,1.65-.91-1.23c.32-2.95,1.38-7.27,2.04-10.27Z"/>
      <path class="cls-20" d="M2879.88,278.64c8.4-.33,36.45-3.01,43.43.52-3.29,1.94-5.65-1.35-7.5,1.35,8.03,2.91,30.5,4.63,40.24,6.24,21.4,3.72,42.55,8.73,63.34,14.99,137.28,40.62,251.92,135.7,317.22,263.09,60.97,121.86,71.7,262.78,29.89,392.47-43.07,130.14-136.11,237.82-258.63,299.32-73.58,37.05-154.62,56.91-237,58.07-14.06.25-39.23.18-52.8-2.12-9.83-.18-19.64-1.2-29.3-3.04-2.13.09-10.44-1.18-12.99-1.52l-.21,1.07-1.56.96c-19.56-5.11-38.37-6.22-60.47-12.71-2.51,1.01-3.57,1.64-5.89,3.05-1.46-.84-2.59-1.47-4.13-2.19l-1.27,4.05c-7.02-.12-6.09-6.8-7.63-8.26-3.34-3.14-17.19-8.6-21.69-10.54-.68,1.38-1.8,1.92-3.09,2.82-3.18.01-4.95-1.47-7.74-3.13l-.28-1.9c-7.95-2.69-16.02-8.19-23.48-11.71-2.23-1.05-10.68,1.18-14.88-.89-1-8.03-9.45-6.9-13.55-10.87-7.66-7.42-14.25-7.81-23.28-12.36-5.4-2.72-7.67-2.95-6.73-8.67-4.47-3.6-15.7-9.91-22.02-14.56-4.51-2.59-11.36-7.93-15.75-11.14-31.07-19.38-87.12-76.9-107.83-106.63-2.47-2.58-5.02-6.71-7.05-9.77-3.66-3.53-16.13-23.14-19.3-28.21-35.05-56.21-52.93-108.34-66.99-172.47-4.63-5.81-5.89-10.61-3.06-17.67-.75-12.01-2.9-25.1-3.86-37.51-2.91-34.34-2.21-68.9,2.09-103.1.22-4.19,1.7-13.21,2.32-17.71-2.12-1.82-3.06-2.61-4.8-4.78,1.13-3.06,2.94-3.19,6.44-5.21l.89-2.81c-.16-2.87,2.39-14.98,3.06-18.24,8.44-41.45,22.65-76.02,39.4-114.42-.1-7.72-.54-10.12,6.88-13.22,2.21-4.02,4.44-8.02,6.7-12.01,7.11-13.7,16.49-27.94,25.03-40.85-1.1-3.92-.08-6.42,2.34-9.39l4.06.15,2.96-3.39c5.32-8.68,20.73-26.68,27.58-34.66,8.71-10.05,17.9-19.67,27.54-28.84,8.17-10.32,39.01-34.84,50.48-44.04l-.66-2.77c2.2-6.83,7.49-7.93,13.59-6.72,81.93-55.99,159.46-84.13,258.19-95.67,24.97-2.59,46.66-2.49,71.75-2.47Z"/>
      <path class="cls-16" d="M2579.9,1236.74c32.54,18.68,56,30.67,91.27,44.12l2.62.84-.86,1.75c-.68,1.38-1.8,1.92-3.09,2.82-3.18.01-4.95-1.47-7.74-3.13l-.28-1.9c-7.95-2.69-16.02-8.19-23.48-11.71-2.23-1.05-10.68,1.18-14.88-.89-1-8.03-9.45-6.9-13.55-10.87-7.66-7.42-14.25-7.81-23.28-12.36-5.4-2.72-7.67-2.95-6.73-8.67Z"/>
      <path class="cls-38" d="M2661.83,1281.24c4.24,1.66,5.15.76,9.35-.38l2.62.84-.86,1.75c-.68,1.38-1.8,1.92-3.09,2.82-3.18.01-4.95-1.47-7.74-3.13l-.28-1.9Z"/>
      <path class="cls-16" d="M2673.8,1281.7c34.39,11.91,65.8,20.79,101.99,26.32l-.21,1.07-1.56.96c-19.56-5.11-38.37-6.22-60.47-12.71-2.51,1.01-3.57,1.64-5.89,3.05-1.46-.84-2.59-1.47-4.13-2.19l-1.27,4.05c-7.02-.12-6.09-6.8-7.63-8.26-3.34-3.14-17.19-8.6-21.69-10.54l.86-1.75Z"/>
      <path class="cls-15" d="M2879.88,278.64c8.4-.33,36.45-3.01,43.43.52-3.29,1.94-5.65-1.35-7.5,1.35-2.19.28-8.44,0-10.98-.07-6.09-1.06-17.8-1.13-24.95-1.81Z"/>
      <path class="cls-16" d="M2537.01,386.27l-.66-2.77c2.2-6.83,7.49-7.93,13.59-6.72l-12.93,9.49Z"/>
      <path class="cls-16" d="M2337.91,876.29c1.11,5.9,2.27,11.72,3.06,17.67-4.63-5.81-5.89-10.61-3.06-17.67Z"/>
      <path class="cls-16" d="M2338.46,717.96c-2.12-1.82-3.06-2.61-4.8-4.78,1.13-3.06,2.94-3.19,6.44-5.21l-1.64,9.99Z"/>
      <path class="cls-16" d="M2383.44,572.51c-.1-7.72-.54-10.12,6.88-13.22-1.21,2.57-3.21,6.52-4.16,9.05l-2.72,4.17Z"/>
      <path class="cls-16" d="M2422.05,506.43c-1.1-3.92-.08-6.42,2.34-9.39l4.06.15-6.4,9.23Z"/>
      <path class="cls-8" d="M2710.56,446.83c97.56-39.85,206.88-39.66,304.3.53,14.9,6.18,76.71,36.88,85.23,49.21,4.23,2.75,6.12,3.97,9.77,7.38l3.12,1.87c6.16,5.61,12.42,11.11,18.78,16.5,9.06,9.9,19.89,19.58,28.36,29.74,62.8,75.23,93.33,164.71,88.84,262.92-4.79,98.16-48.61,190.33-121.71,256.01-18.93,17.4-39.72,32.68-61.98,45.56-74.95,44.11-162.26,62.51-248.64,52.41-8.41-1-34.72-3.86-41.75-7.08-20.76-3.96-63.86-17.1-82.81-28.02-12.55-4.96-26.07-13.02-37.76-19.93-5.18-2.98-10.5-6.82-15.46-10.23-1.27-.66-4.21-2.76-5.54-3.66-4.04-2.64-8.66-6.37-12.56-9.35-16.32-11.83-31.89-26.95-46-41.38l-3.59.59c-5.77-4.46-11.9-9.72-11.35-17.41l-7.61-10.04-1.25-1.18-14.85-20.94-1.42-1.59.15-.88-3.66-5.22-4.5-7.05c-7.15-12.84-16.95-29.08-21.52-42.71-2.17-4.17-3.98-9.31-5.68-13.75-2.48-4.16-8.15-22.09-9.68-27.15-15.71-51.83-17.33-99.6-12.79-152.95,1.51-6.94,2.85-17.6,4.01-24.88.33-.89,1.11-5.16,1.35-6.36,1.12-6.14,3.3-14.21,4.81-20.44,1.06-2.37,4.63-14.79,5.68-18.02,3.66-11.48,7.92-22.77,12.74-33.81,28.84-65.69,74.31-118.57,132.44-159.78l8.97-5.91c17.11-11.72,43.78-25.58,63.57-33.01Z"/>
      <path class="cls-8" d="M2647,479.84c17.11-11.72,43.78-25.58,63.57-33.01,3.22.92,5.67,1.19,7.72,3.68-1.7,5.45-4.23,2.31-5.46,8.61l-.58.33c-6.4,3.57-15.22,7.2-22.09,10.62-12.91,6.42-25.44,13.57-37.53,21.43-72.93,47.67-126.47,119.79-150.99,203.4-10.35,35.92-18.46,97.49-12.39,135.27.41,8.79,1.25,14.63,2.77,23.35,8.14,44.79,20.6,81.99,43.71,121.78,33.97-19.24,69.09-37.55,103.28-56.51,6.23-3.45,38.77-21.61,42.75-22.77,24.19-13.62,64.6-36.93,88.91-48.1,3.94-4.14,49.33-27.37,58.99-32.71,36.79-20.34,74.64-39.53,111.27-60.29l.83-.8c3.5,2.67,15.95,12.71,19.59,13.03l2.13,1.56.55.75.45-.57c4.08-4.35,18.66-11.63,24.65-14.88,39.19-21.32,84.81-44.26,122.82-66.75,25.88-12.49,63.68-33.81,89.11-48.31,41.77,87.7,46.67,188.48,13.62,279.82-23.67,64.51-65.37,120.87-120.14,162.39-8.37,6.37-22.89,16.91-32.02,21.7-6.8,4.54-13.67,8.22-20.82,12.16,9.31.32,15.16-8.7,19.51-6.16.55,2.27,1.2,4.76,1.64,7.04l2.43.66c-74.95,44.11-162.26,62.51-248.64,52.41-8.41-1-34.72-3.86-41.75-7.08-20.76-3.96-63.86-17.1-82.81-28.02-12.55-4.96-26.07-13.02-37.76-19.93-5.18-2.98-10.5-6.82-15.46-10.23-1.27-.66-4.21-2.76-5.54-3.66-4.04-2.64-8.66-6.37-12.56-9.35-16.32-11.83-31.89-26.95-46-41.38l-3.59.59c-5.77-4.46-11.9-9.72-11.35-17.41l-7.61-10.04-1.25-1.18-14.85-20.94-1.42-1.59.15-.88-3.66-5.22-4.5-7.05c-7.15-12.84-16.95-29.08-21.52-42.71-2.17-4.17-3.98-9.31-5.68-13.75-2.48-4.16-8.15-22.09-9.68-27.15-15.71-51.83-17.33-99.6-12.79-152.95,1.51-6.94,2.85-17.6,4.01-24.88.33-.89,1.11-5.16,1.35-6.36,1.12-6.14,3.3-14.21,4.81-20.44,1.06-2.37,4.63-14.79,5.68-18.02,3.66-11.48,7.92-22.77,12.74-33.81,28.84-65.69,74.31-118.57,132.44-159.78l8.97-5.91Z"/>
      <path class="cls-28" d="M3036.4,798.14c25.8-6.18,51.65-12.15,77.54-17.92,11.91-2.74,30.07-6.53,41.14-10-10.66,36.83-22.82,76.35-32.44,113.28-8.7-9.1-17.6-18-26.69-26.7-45.76,37.71-91.9,74.96-138.41,111.73-15.48,12.4-32.97,25.73-47.99,38.32-24.88-17.56-50.75-33.63-75.58-51.07-61.79,44.67-130.27,89.78-193.3,133.31-12.58-7.84-26.57-20.5-37.92-30.34l231.45-159.87c23.01,15.3,51.76,33.11,73.62,49.09,16.77-15.1,40.77-33.34,58.62-47.69l95.71-76.9c-8.74-8.25-17.33-16.67-25.75-25.24Z"/>
      <path class="cls-34" d="M2647,479.84c17.11-11.72,43.78-25.58,63.57-33.01,3.22.92,5.67,1.19,7.72,3.68-1.7,5.45-4.23,2.31-5.46,8.61l-.58.33c-6.4,3.57-15.22,7.2-22.09,10.62-12.91,6.42-25.44,13.57-37.53,21.43-72.93,47.67-126.47,119.79-150.99,203.4-10.35,35.92-18.46,97.49-12.39,135.27.41,8.79,1.25,14.63,2.77,23.35,8.14,44.79,20.6,81.99,43.71,121.78,33.97-19.24,69.09-37.55,103.28-56.51,6.23-3.45,38.77-21.61,42.75-22.77,24.19-13.62,64.6-36.93,88.91-48.1-1.72,5.68-12.63,14.57-7.36,23.94,2.22,1.23,3.16.97,5.82.92l-58.35,31.83c-8.55,4.66-22.19,12.66-30.71,16.56-43.14,25.02-89.09,48.1-132.74,72.76,18.77,26.69,31.74,41.88,55.44,64.81,11.35,9.84,25.33,22.51,37.92,30.34,6.01,4.63,17.44,12.31,24.23,16.32,22.02,12.16,36.68,19.26,59.73,28.68,7.2,2.46,18.28,6.62,25.34,8.41,22.42,6.23,36.24,8.59,58.86,12.83,8.03,1.32,17.08,1.89,25.28,2.57,20.44.65,38.55,1.39,59.05-.4,4.01.41,21.36-2.2,25.75-2.84,21.55-3.91,37.73-7.58,58.84-13.34,5.27-1.28,20.49-6.91,25.33-8.97,12.62-5.16,27.05-12.95,38.61-17.34,9.31.32,15.16-8.7,19.51-6.16.55,2.27,1.2,4.76,1.64,7.04l2.43.66c-74.95,44.11-162.26,62.51-248.64,52.41-8.41-1-34.72-3.86-41.75-7.08-20.76-3.96-63.86-17.1-82.81-28.02-12.55-4.96-26.07-13.02-37.76-19.93-5.18-2.98-10.5-6.82-15.46-10.23-1.27-.66-4.21-2.76-5.54-3.66-4.04-2.64-8.66-6.37-12.56-9.35-16.32-11.83-31.89-26.95-46-41.38l-3.59.59c-5.77-4.46-11.9-9.72-11.35-17.41l-7.61-10.04-1.25-1.18-14.85-20.94-1.42-1.59.15-.88-3.66-5.22-4.5-7.05c-7.15-12.84-16.95-29.08-21.52-42.71-2.17-4.17-3.98-9.31-5.68-13.75-2.48-4.16-8.15-22.09-9.68-27.15-15.71-51.83-17.33-99.6-12.79-152.95,1.51-6.94,2.85-17.6,4.01-24.88.33-.89,1.11-5.16,1.35-6.36,1.12-6.14,3.3-14.21,4.81-20.44,1.06-2.37,4.63-14.79,5.68-18.02,3.66-11.48,7.92-22.77,12.74-33.81,28.84-65.69,74.31-118.57,132.44-159.78l8.97-5.91Z"/>
      <path class="cls-1" d="M2681.75,896.02c24.19-13.62,64.6-36.93,88.91-48.1-1.72,5.68-12.63,14.57-7.36,23.94,2.22,1.23,3.16.97,5.82.92l-58.35,31.83c-8.55,4.66-22.19,12.66-30.71,16.56,2.43-11.47,42.26-23.53,50.64-32.65-.04.04,2.6-14.76,2.6-14.74-9.83-1.19-24.95,10.71-31.44,17.74-6.72-1.46-8.04-.71-12.61,4.31,1,1.31,1.01,1.2,1.26,2.82-5.11-3.08-2.92-2.48-8.77-2.63Z"/>
      <path class="cls-16" d="M2692.08,1133.87l1.39-1.06c16.38,6.86,32.86,10.22,48.99,18.25,8,3.98,24.36,5.33,32.74,9.78l-.31,1.04c-20.76-3.96-63.86-17.1-82.81-28.02Z"/>
      <path class="cls-39" d="M2536.1,1000.34l3.08-1.25c9.61,4.83,6.81,16.29,16.91,18.27l.12,1.56c-2.02.65-3.68.97-5.26,2.36l-14.85-20.94Z"/>
      <path class="cls-4" d="M2559.8,1032.5l1.18.26c3.03,5.12,9.58,11.9,13.76,16.56l-3.59.59c-5.77-4.46-11.9-9.72-11.35-17.41Z"/>
      <path class="cls-16" d="M2638.85,1103.71c4-.6,13.5,3.01,15.61,6.47l-.14,3.76c-5.18-2.98-10.5-6.82-15.46-10.23Z"/>
      <path class="cls-16" d="M2620.75,1090.7l5.05.07c2.65.05,3.37.59,5.69,1.96,2.48,4.12,1.9,2.43,1.82,7.33-4.04-2.64-8.66-6.37-12.56-9.35Z"/>
      <path class="cls-39" d="M2552.19,1022.46c5.65,1.43,9.59,3.04,8.79,10.3l-1.18-.26-7.61-10.04Z"/>
      <path class="cls-39" d="M2499.46,929.14c6.83,3.11,6.31,6.99,5.68,13.75-2.17-4.17-3.98-9.31-5.68-13.75Z"/>
      <path class="cls-39" d="M2647,479.84c-1.09,3.56-.57,3.99-3.15,5.97l-5.81-.06,8.97-5.91Z"/>
      <path class="cls-39" d="M2531.16,992.65c3.64-.65,2.56-1.02,5.07.53.09,3.1.39,1.87-1.42,4.69l-3.66-5.22Z"/>
      <path class="cls-28" d="M3003.39,961.25c19.68-15.04,39.73-31.7,59.09-47.28-.92,62.05.02,126.68.03,188.9-6.8,4.54-13.67,8.22-20.82,12.16-11.56,4.39-25.99,12.18-38.61,17.34.41-57.04.51-114.08.31-171.11Z"/>
      <path class="cls-28" d="M2834.11,983.84c18.75,13.52,40.1,27.41,59.35,40.5-.63,44.17.14,88.86-.3,133.16-20.5,1.78-38.61,1.05-59.05.4.61-19.56.11-41.51.1-61.21l-.1-112.85Z"/>
      <path class="cls-28" d="M2918.89,1028c18.69-13.69,40.79-31.45,58.84-46.16l.02,159.49c-21.11,5.76-37.29,9.42-58.84,13.34l-.02-126.66Z"/>
      <path class="cls-28" d="M2808.35,1000.18c1.18,12.9.47,39.1.46,52.82l.02,102.33c-22.62-4.24-36.44-6.6-58.86-12.83l.28-101.69c19.14-13.23,39.47-26.84,58.1-40.62Z"/>
      <path class="cls-18" d="M2940.92,754.93l.83-.8c3.5,2.67,15.95,12.71,19.59,13.03l2.13,1.56c-8.3,2.47-35.42,18.13-44.44,23.03l-102.6,55.51c-8.29,4.49-39.9,22.51-47.31,25.52-2.66.05-3.6.32-5.82-.92-5.27-9.37,5.64-18.26,7.36-23.94,3.94-4.14,49.33-27.37,58.99-32.71,36.79-20.34,74.64-39.53,111.27-60.29Z"/>
      <path class="cls-28" d="M2664.9,1105.41c.39-3.65-.28-6,2.79-8.23,18.69-13.58,38.67-25.89,57.05-39.87-.05,24.88-.65,52.09-.11,76.78-23.05-9.42-37.71-16.51-59.73-28.68Z"/>
      <path class="cls-36" d="M2813.9,616.67l9.68,2.96c2.71.92,13.88,4.48,15.66,5.65l.79.13c8.25,1.49,16.8,7.32,23.38,4.97.33-1.38.71-2.67.77-4.08l1.24.04c2.59-2.95,5.35-6.55,7.84-9.65,3.21,3.9,4.84,5.18,2.82,10.33l.41.22c-2.25,4.04-2.78,3.66-1.89,8.52,15.23,4.23,30.08,9.96,45.1,14.11,1.97.93,4.6,2.35,6.63,2.82,10.47,30.01,21.44,63.62,31.04,94.02,1.32,3.84,6.78,18.91,7.1,22.18l-.45.57-.55-.75-2.13-1.56c-3.64-.32-16.09-10.36-19.59-13.03l-.83.8c-36.63,20.76-74.48,39.94-111.27,60.29-9.66,5.34-55.05,28.57-58.99,32.71-24.31,11.17-64.72,34.47-88.91,48.1-3.97,1.15-36.52,19.32-42.75,22.77-34.19,18.95-69.31,37.27-103.28,56.51-23.11-39.78-35.57-76.98-43.71-121.78,42.31-22.25,84.13-45.93,126.28-68.53,10.08-5.41,24.82-12.63,33.99-19.05,11.04-4.82,39.05-20.98,51.21-27.73,25-13.89,54.44-28.74,78.47-43.44,2.53-1.39,3.29-6.18,4.23-9.17,2.36-7.52,4.54-14.01,7.34-21.38.63-3.03,2.99-8.56,4.21-11.68,4.05-1.54,8.16-2.95,12.31-4.21,1.44-7.24-2.7-21.42,2.16-29.43l2.03.43.43-.99-.4.63c.2-1.59.32-.86-.37-2.29Z"/>
      <path class="cls-14" d="M2865.79,637.37c-.39-.98-.77-2.33-1.09-3.36,3.1-.97,6.27.68,9.9,1.77,15.23,4.23,30.08,9.96,45.1,14.11,1.97.93,4.6,2.35,6.63,2.82,10.47,30.01,21.44,63.62,31.04,94.02,1.32,3.84,6.78,18.91,7.1,22.18l-.45.57-.55-.75-2.13-1.56c-3.64-.32-16.09-10.36-19.59-13.03l-.83.8c-2.43-2.69-17.54-12.93-21.39-15.61-16.18-11.06-32.24-22.29-48.17-33.7-3.23-2.41-6.27-5.08-10.08-6.24,1.94-4.18.42-20.91,1.24-27.71l.97,1.27c.37-6.05,1.54-14.18.47-19.87-.65-7.98-4.23-9.29,1.83-15.69Z"/>
      <path class="cls-19" d="M2865.79,637.37l3.21,4.36c28.89,37.84,65.77,86.61,92.34,125.43-3.64-.32-16.09-10.36-19.59-13.03l-.83.8c-2.43-2.69-17.54-12.93-21.39-15.61-16.18-11.06-32.24-22.29-48.17-33.7-3.23-2.41-6.27-5.08-10.08-6.24,1.94-4.18.42-20.91,1.24-27.71l.97,1.27c.37-6.05,1.54-14.18.47-19.87-.65-7.98-4.23-9.29,1.83-15.69Z"/>
      <path class="cls-39" d="M2861.28,699.37c1.94-4.18.42-20.91,1.24-27.71l.97,1.27c2.55.82,3.67,1.19,6.03,2.42.22,1.44,1.93,29.1,1.84,30.26-3.23-2.41-6.27-5.08-10.08-6.24Z"/>
      <path class="cls-39" d="M2865.79,637.37l3.21,4.36.61,5.67-1.76,1.96c.77-1.44.82-2.05.8-3.67-.69,2.45-2.87,5.64-4.69,7.38-.65-7.98-4.23-9.29,1.83-15.69Z"/>
      <path class="cls-15" d="M2813.9,616.67l9.68,2.96c2.71.92,13.88,4.48,15.66,5.65l.79.13c8.25,1.49,16.8,7.32,23.38,4.97.33-1.38.71-2.67.77-4.08l1.24.04c2.59-2.95,5.35-6.55,7.84-9.65,3.21,3.9,4.84,5.18,2.82,10.33l.41.22c-2.25,4.04-2.78,3.66-1.89,8.52-3.63-1.09-6.8-2.74-9.9-1.77.32,1.03.7,2.38,1.09,3.36-6.06,6.39-2.48,7.7-1.83,15.69,1.07,5.7-.1,13.83-.47,19.87l-.97-1.27c-.82,6.8.7,23.53-1.24,27.71l-1.13.38c-5.91,4.61-11.98,9.03-18.19,13.25l-2.9,2c-5.97,4.38-11.27,8.32-17.6,12.2l-2.43,2.29c-2.34-10.67.06-24.83-2.06-37.02-7.78,10.55-15.54,21.12-24.48,30.74-1.88,2.03-3.21,4.42-4.56,6.82-1.81,3.93-2.5,5.09-5.01,8.61l-3.74,4.86-2.95-.52c-3.37-4.39-3.42-7.9-4.02-13.28,2.9-8.77,5.73-17.57,8.48-26.39,1.6-4.77,2.29-4.38,1.27-8.56,2.53-1.39,3.29-6.18,4.23-9.17,2.36-7.52,4.54-14.01,7.34-21.38.63-3.03,2.99-8.56,4.21-11.68,4.05-1.54,8.16-2.95,12.31-4.21,1.44-7.24-2.7-21.42,2.16-29.43l2.03.43.43-.99-.4.63c.2-1.59.32-.86-.37-2.29Z"/>
      <path class="cls-9" d="M2873.26,616.71c3.21,3.9,4.84,5.18,2.82,10.33l.41.22c-2.25,4.04-2.78,3.66-1.89,8.52-3.63-1.09-6.8-2.74-9.9-1.77.32,1.03.7,2.38,1.09,3.36-6.06,6.39-2.48,7.7-1.83,15.69,1.07,5.7-.1,13.83-.47,19.87l-.97-1.27c-.82,6.8.7,23.53-1.24,27.71l-1.13.38c-5.91,4.61-11.98,9.03-18.19,13.25l-2.9,2c-5.97,4.38-11.27,8.32-17.6,12.2l-2.43,2.29c-2.34-10.67.06-24.83-2.06-37.02l5.11-7c3.34-4.7,6.85-9.28,10.51-13.74,2.37-3.67,3.51-5.31,6.38-8.57,4.86-7.96,12.73-18.54,18.41-25.96.07-.66,1.27-2.48,1.68-3.2l-.65-.58c-1.73-.26-17.91-7.22-19.17-8.14l.79.13c8.25,1.49,16.8,7.32,23.38,4.97.33-1.38.71-2.67.77-4.08l1.24.04c2.59-2.95,5.35-6.55,7.84-9.65Z"/>
      <path class="cls-34" d="M2832.59,671.73c-1.44,5.04-2.02,4-.16,7.67l.42-.08c1.3,11.51,1.84,25.12,6.21,35.68-5.97,4.38-11.27,8.32-17.6,12.2l-2.43,2.29c-2.34-10.67.06-24.83-2.06-37.02l5.11-7c3.34-4.7,6.85-9.28,10.51-13.74Z"/>
      <path class="cls-16" d="M2816.97,692.47l5.11-7c.73,6.53,1.76,37.95-.62,41.73l-2.43,2.29c-2.34-10.67.06-24.83-2.06-37.02Z"/>
      <path class="cls-38" d="M2873.26,616.71c3.21,3.9,4.84,5.18,2.82,10.33l.41.22c-2.25,4.04-2.78,3.66-1.89,8.52-3.63-1.09-6.8-2.74-9.9-1.77.32,1.03.7,2.38,1.09,3.36-6.06,6.39-2.48,7.7-1.83,15.69,1.07,5.7-.1,13.83-.47,19.87l-.97-1.27c-.82,6.8.7,23.53-1.24,27.71l-1.13.38c-.66-2.42-.6-20.28-.81-24.89l-.95,6.36c-1.22-9.72,1.42-37.28-1.01-44.04.07-.66,1.27-2.48,1.68-3.2l-.65-.58c-1.73-.26-17.91-7.22-19.17-8.14l.79.13c8.25,1.49,16.8,7.32,23.38,4.97.33-1.38.71-2.67.77-4.08l1.24.04c2.59-2.95,5.35-6.55,7.84-9.65Z"/>
      <path class="cls-9" d="M2873.26,616.71c3.21,3.9,4.84,5.18,2.82,10.33-3.4,1.33-6.16,2.91-9.59,2.25l-1.07-2.93c2.59-2.95,5.35-6.55,7.84-9.65Z"/>
      <path class="cls-1" d="M2838.97,663.15l.95-.18c1.27-.24,1.87-.47,3.1-.92,1.72,4.28.05,45.21-1.06,50.95l-2.9,2c-4.37-10.56-4.91-24.17-6.21-35.68l-.42.08c-1.86-3.68-1.28-2.63.16-7.67,2.37-3.67,3.51-5.31,6.38-8.57Z"/>
      <path class="cls-34" d="M2813.9,616.67l9.68,2.96c2.71.92,13.88,4.48,15.66,5.65,1.26.92,17.44,7.88,19.17,8.14-11.98,2.66-36.21,10.61-48.36,14.91,1.44-7.24-2.7-21.42,2.16-29.43l2.03.43.43-.99-.4.63c.2-1.59.32-.86-.37-2.29Z"/>
      <path class="cls-38" d="M2780.69,703.32l2.26.77c-.99,7.06-5.04,16.62-7.29,23.85,2.69.82,6.44,1.41,8.36,2.94,2.9-5.08-2.56-6.2-2.11-10.94l1.15-.19c1.79,4.01,3.19,5.93,4.87,10.27-1.81,3.93-2.5,5.09-5.01,8.61l-3.74,4.86-2.95-.52c-3.37-4.39-3.42-7.9-4.02-13.28,2.9-8.77,5.73-17.57,8.48-26.39Z"/>
      <path class="cls-29" d="M2787.93,730.03c1.35-2.4,2.68-4.79,4.56-6.82,8.94-9.62,16.7-20.19,24.48-30.74,2.12,12.19-.28,26.35,2.06,37.02-12.43,8.46-25.94,18.83-38.09,26.71l.39-3.63c2.33-2.73,3.03-3.39,4.35-6.88-.21-3.59-.74-4.16-2.76-7.04,2.51-3.53,3.2-4.69,5.01-8.61Z"/>
      <path class="cls-34" d="M2772.21,729.71c.6,5.38.65,8.88,4.02,13.28l2.95.52,3.74-4.86c2.02,2.88,2.55,3.45,2.76,7.04-1.32,3.49-2.02,4.15-4.35,6.88l-.39,3.63c-5.87,4.2-13.48,9.74-19.85,13.11l-1.7,1.2c-.56-2.42,11.27-36.15,12.82-40.8Z"/>
      <path class="cls-15" d="M2782.92,738.64c2.02,2.88,2.55,3.45,2.76,7.04-1.32,3.49-2.02,4.15-4.35,6.88l-.39,3.63c-5.87,4.2-13.48,9.74-19.85,13.11,3.12-6.27,13.51-19.61,18.09-25.81l3.74-4.86Z"/>
      <path class="cls-36" d="M3108.13,518.78c4.96,4.42,24.36,21.43,26.99,25.91,5.58,5.41,8.46,8.51,13.32,14.56,13.53,13.71,34.09,43.91,42.87,61.1-11.33,5.64-74.55,37.75-80.78,43.63-1.37,6.45-22.29,14.94-28.13,19.29-.08,3.67-.91,13.35.64,15.74,4.87-.33,11.34-10.48,28.9-11.76-38.01,22.49-83.63,45.43-122.82,66.75-5.99,3.26-20.57,10.54-24.65,14.88-.32-3.27-5.78-18.33-7.1-22.18-9.6-30.41-20.57-64.01-31.04-94.02-2.03-.47-4.66-1.89-6.63-2.82-15.02-4.14-29.87-9.88-45.1-14.11-.89-4.86-.36-4.48,1.89-8.52l-.41-.22c2.02-5.15.39-6.43-2.82-10.33,3.22-4.48,5.3-6.83,9.08-10.89.73-1.78,3.97-5.45,5.34-7.13l5.43-7.39,11.23-14.24c6.2.17,12.4.3,18.61.39,7.68-.31,23.8-.47,31.56.1l.8.05c8.75-.03,35.13-1.13,41.99.57,2.55-.15,2.86-.32,5.31-1.19,4.1-2.36,8.82-4.76,13.03-7.03,3.24-2.4,16.54-9.42,20.54-11.59,13.69-7.36,27.31-14.84,40.87-22.44,8.46-3.54,22.89-12.32,31.08-17.14Z"/>
      <path class="cls-24" d="M2904.34,577.06c6.2.17,12.4.3,18.61.39,7.68-.31,23.8-.47,31.56.1l.8.05c8.75-.03,35.13-1.13,41.99.57,5.02,1.46,5.56.82,6.41,6.68l1.61,1.01-21.33,7.16c9.33,4.15,11.57-6.52,20.52-.26l-.26,1.14c-7.09,1.26-7.54,7.06-9.67,6.95-4.06-.2-6.26.1-8.23,8.61-17.53,14.52-41.6,28.96-60.02,43.24-2.03-.47-4.66-1.89-6.63-2.82-15.02-4.14-29.87-9.88-45.1-14.11-.89-4.86-.36-4.48,1.89-8.52l-.41-.22c2.02-5.15.39-6.43-2.82-10.33,3.22-4.48,5.3-6.83,9.08-10.89.73-1.78,3.97-5.45,5.34-7.13l5.43-7.39,11.23-14.24Z"/>
      <path class="cls-15" d="M2916.44,613.98c5.27-.87,10.35-2.57,15.45-4.09-9.56,8.34-21.63,26.76-11.81,39.06l-.38.93c-15.02-4.14-29.87-9.88-45.1-14.11-.89-4.86-.36-4.48,1.89-8.52l9.08-3.04,3.89-1.2c8.43-3.11,18.36-6.15,26.98-9.04Z"/>
      <path class="cls-22" d="M2955.31,577.59c8.75-.03,35.13-1.13,41.99.57,5.02,1.46,5.56.82,6.41,6.68l1.61,1.01-21.33,7.16c-8.17,1.06-33.91,11.83-38.27,11.94l-1.32-1.54c3.2-3.37,1.52.42,6.91-2.95,2.55-4.58,2.08-14.3,2.11-19.94-7.18-.02-14.36-.1-21.54-.24,4.24-1.27,15.93-1.62,21.73-2.58l.9-.15.8.05Z"/>
      <path class="cls-1" d="M2904.34,577.06c6.2.17,12.4.3,18.61.39-7.06.97-18.22.81-21.49,5.83-5.74,8.82.67,20.05-.53,29.27l-.87.09c-1.08-2.91-2.05-5.85-3.53-8.56.28,4.41.67,8.82,1.16,13.21l1.23.61c3.06-2,1.92-.59,4.26-.69,2.11-.1,7.1-3.95,8.84-5.25,2.3,1.61,3.14,1.21,4.42,2.02-8.62,2.88-18.55,5.93-26.98,9.04l-3.89,1.2-9.08,3.04-.41-.22c2.02-5.15.39-6.43-2.82-10.33,3.22-4.48,5.3-6.83,9.08-10.89.73-1.78,3.97-5.45,5.34-7.13l5.43-7.39,11.23-14.24Z"/>
      <path class="cls-9" d="M2887.68,598.69c1.47,9.05,1.61,15.43,1.78,24.33l-3.89,1.2-9.08,3.04-.41-.22c2.02-5.15.39-6.43-2.82-10.33,3.22-4.48,5.3-6.83,9.08-10.89.73-1.78,3.97-5.45,5.34-7.13Z"/>
      <path class="cls-1" d="M2873.26,616.71c3.22-4.48,5.3-6.83,9.08-10.89l.77,1.74c-2.31,4.12.43,12.32,2.46,16.67l-9.08,3.04-.41-.22c2.02-5.15.39-6.43-2.82-10.33Z"/>
      <path class="cls-16" d="M2980.96,733.91c5.11-2.98,10.72-6.03,15.99-8.79,37.88-19.9,75.36-41.99,113.58-61.13-1.37,6.45-22.29,14.94-28.13,19.29-.08,3.67-.91,13.35.64,15.74,4.87-.33,11.34-10.48,28.9-11.76-38.01,22.49-83.63,45.43-122.82,66.75-5.99,3.26-20.57,10.54-24.65,14.88-.32-3.27-5.78-18.33-7.1-22.18,8.06-4.62,15.28-8.67,23.59-12.81Z"/>
      <path class="cls-39" d="M2957.37,746.72c8.06-4.62,15.28-8.67,23.59-12.81l.51,2.35c-6.6,8.48-24.9,4.73-18.62,23.67,2.29-.14,2.91-.24,5.15-.78,8.1,2.61,12.57-5.09,19.95-8.79,1.14,1.18,1.01,1.99,1.17,3.65-5.99,3.26-20.57,10.54-24.65,14.88-.32-3.27-5.78-18.33-7.1-22.18Z"/>
      <path class="cls-1" d="M3002.61,576.98c4.1-2.36,8.82-4.76,13.03-7.03l-1.43,3.06c2.27,2.98,6.19,3.01,9.99,4.45l4.17.48.27.94c-13.87,10.49-27.97,20.68-42.29,30.57,1.97-8.51,4.17-8.81,8.23-8.61,2.13.11,2.58-5.69,9.67-6.95l.26-1.14c-8.95-6.27-11.19,4.41-20.52.26l21.33-7.16-1.61-1.01c-.85-5.86-1.39-5.22-6.41-6.68,2.55-.15,2.86-.32,5.31-1.19Z"/>
      <path class="cls-33" d="M3002.61,576.98c4.1-2.36,8.82-4.76,13.03-7.03l-1.43,3.06c2.27,2.98,6.19,3.01,9.99,4.45l4.17.48.27.94c-4.79.08-17.8,5.32-23.32,6.96l-1.61-1.01c-.85-5.86-1.39-5.22-6.41-6.68,2.55-.15,2.86-.32,5.31-1.19Z"/>
      <path class="cls-26" d="M3002.61,576.98c4.1-2.36,8.82-4.76,13.03-7.03l-1.43,3.06c2.27,2.98,6.19,3.01,9.99,4.45-6.32.17-15.71.8-21.59-.49Z"/>
      <path class="cls-25" d="M2710.56,446.83c97.56-39.85,206.88-39.66,304.3.53,14.9,6.18,76.71,36.88,85.23,49.21,4.23,2.75,6.12,3.97,9.77,7.38l3.12,1.87c6.16,5.61,12.42,11.11,18.78,16.5,9.06,9.9,19.89,19.58,28.36,29.74,62.8,75.23,93.33,164.71,88.84,262.92-4.79,98.16-48.61,190.33-121.71,256.01-18.93,17.4-39.72,32.68-61.98,45.56l-2.43-.66c-.44-2.28-1.09-4.76-1.64-7.04-4.35-2.55-10.2,6.47-19.51,6.16,7.15-3.95,14.02-7.62,20.82-12.16,9.13-4.79,23.65-15.33,32.02-21.7,54.77-41.51,96.47-97.87,120.14-162.39,33.05-91.34,28.15-192.12-13.62-279.82-25.43,14.5-63.23,35.83-89.11,48.31-17.56,1.27-24.03,11.42-28.9,11.76-1.55-2.4-.72-12.07-.64-15.74,5.84-4.35,26.76-12.83,28.13-19.29,6.23-5.88,69.45-37.99,80.78-43.63-8.78-17.19-29.34-47.39-42.87-61.1-4.86-6.05-7.74-9.15-13.32-14.56-2.63-4.48-22.03-21.49-26.99-25.91-8.19,4.82-22.62,13.6-31.08,17.14-5.23-.71-5.46.1-10.23,1.42-.27-9.55-.15-5.87-4.13-13.24,4.34-3.76,12.77-5.85,14.11-12.21,2.77-1.93,10.37-5.84,13.64-7.65-21.89-15.27-43.53-28.63-67.91-39.72-74.93-33.93-158.65-43.34-239.24-26.89-26.32,5.5-45.82,12.23-70.47,21.49,1.23-6.3,3.76-3.16,5.46-8.61-2.05-2.49-4.5-2.76-7.72-3.68Z"/>
      <path class="cls-15" d="M3100.09,496.57c4.23,2.75,6.12,3.97,9.77,7.38-6.22-.11-8.91-1.44-9.77-7.38Z"/>
      <path class="cls-9" d="M2819.48,577.64c7.1-12.57,38.09-114.24,43.24-117,8.3,22.61,16.35,45.31,24.16,68.1.57,1.66,2.58,7.27,2.77,8.66,4.99,12.4,9.47,28.19,14.69,39.66l-11.23,14.24-5.43,7.39c-1.37,1.68-4.61,5.35-5.34,7.13-3.78,4.06-5.86,6.4-9.08,10.89-2.49,3.1-5.25,6.7-7.84,9.65l-1.24-.04c.29-3.1,1.09-4.27.75-7.62l-.82-1.94c-1.02,1.96-1.07,5.92-1.26,8.3l-2.38,1.22,1.16,1.59c-1.32-.25-1.27-4.06-3.87-5.2l-.25,2.74-.96.55c-7.67-5.37-21.41-21.88-25.76-30.13-4.27-8.09-4.73-11.02-11.31-18.19Z"/>
      <path class="cls-15" d="M2862.72,460.64c8.3,22.61,16.35,45.31,24.16,68.1.57,1.66,2.58,7.27,2.77,8.66,4.99,12.4,9.47,28.19,14.69,39.66l-11.23,14.24-5.43,7.39c-1.37,1.68-4.61,5.35-5.34,7.13-3.78,4.06-5.86,6.4-9.08,10.89-2.49,3.1-5.25,6.7-7.84,9.65l-1.24-.04c.29-3.1,1.09-4.27.75-7.62,7.02-15.08,4.05-30.94.14-46.38-1.39-5.49-3.13-9.24-3-14.96.49-22.04-.08-44.17-.11-66.2,0-8.09-.74-23.05.76-30.52Z"/>
      <path class="cls-33" d="M2886.88,528.73c.57,1.66,2.58,7.27,2.77,8.66,4.99,12.4,9.47,28.19,14.69,39.66l-11.23,14.24c-1.62-.97-4.25-1.89-6.07-2.61-1.65-4.87-1.66-20.71-1.32-26.28-2.62-19.61,1.48-17.63,1.16-33.67Z"/>
      <path class="cls-39" d="M2868.04,521.75c6.18,3.56,5.44,13.28,5.36,19.33-3.19-3.52-4.38-14.16-5.36-19.33Z"/>
      <path class="cls-15" d="M2662.87,735.88l1.04.05c6.34.27,8.8-1.5,14.36-4.6,1.2,2.12-2.21,14.52-2.16,17.55.04,2.26-5.46,4.77-7.72,5.77-7.32,3.23-9.8,4.49-15.82,9.92l-.3,1.35c-9.17,6.42-23.91,13.64-33.99,19.05-42.15,22.6-83.97,46.28-126.28,68.53-1.52-8.73-2.36-14.57-2.77-23.35,14.81-6.99,33.3-18.21,48.15-26,41.62-21.85,83.73-47.06,125.48-68.28Z"/>
      <path class="cls-34" d="M2793.53,664.21c-2.8,7.37-4.98,13.86-7.34,21.38-.94,2.99-1.7,7.78-4.23,9.17-24.03,14.7-53.47,29.55-78.47,43.44-12.16,6.75-40.17,22.91-51.21,27.73l.3-1.35c6.02-5.43,8.5-6.7,15.82-9.92,2.26-.99,7.75-3.51,7.72-5.77-.05-3.03,3.36-15.44,2.16-17.55-5.56,3.1-8.01,4.86-14.36,4.6l-1.04-.05c12.3-7.56,30.48-16.69,43.51-23.83l87.16-47.84Z"/>
      <path class="cls-5" d="M2721.15,586.69c4.5,1.33,13.92,4.35,18.11,5.12,8.57,3.12,37.65,13.48,45.74,15.08l13.21,4.57,4.9,1.5,10.79,3.72c.69,1.43.57.7.37,2.29l.4-.63-.43.99-2.03-.43c-4.86,8-.72,22.19-2.16,29.43-4.15,1.26-8.26,2.66-12.31,4.21-23.01-16.59-56.84-38.61-78.09-56.19.84-.3,2-.94,2.83-1.36-2.12-4.6-3.94-2.36-7.68-6.62,2.21-1.73,3.23-1.32,6.35-1.67Z"/>
      <path class="cls-27" d="M3076.8,511.89c-1.34,6.36-9.77,8.45-14.11,12.21,3.98,7.37,3.86,3.68,4.13,13.24,4.77-1.31,5-2.13,10.23-1.42-13.56,7.6-27.18,15.08-40.87,22.44-4,2.18-17.3,9.19-20.54,11.59-4.21,2.26-8.93,4.66-13.03,7.03-2.45.87-2.76,1.04-5.31,1.19-6.86-1.7-33.24-.6-41.99-.57,4.5-1.49,30.07-15.93,35.99-19.16l85.5-46.54Z"/>
      <path class="cls-1" d="M2760.82,577.61c14.36-.16,45.16-1.18,58.66.03,6.58,7.17,7.04,10.1,11.31,18.19,4.35,8.25,18.09,24.76,25.76,30.13l.96-.55.25-2.74c2.6,1.15,2.55,4.96,3.87,5.2l-1.16-1.59,2.38-1.22c.19-2.38.24-6.34,1.26-8.3l.82,1.94c.34,3.35-.46,4.52-.75,7.62-.06,1.41-.44,2.7-.77,4.08-6.58,2.35-15.13-3.48-23.38-4.97l-.79-.13c-1.78-1.17-12.95-4.73-15.66-5.65l-9.68-2.96-10.79-3.72-4.9-1.5-13.21-4.57c-1.92-1-3.05-1.79-4.84-3.02-1.56-5.13-1.03-6.66.86-11.5l1.82-.02c11.95-15.16-13.84-14.02-22.02-14.74Z"/>
      <path class="cls-9" d="M2803.11,612.95l-2.42-4.36,4.39-10.37c1.4,3.18-1.12,5.77.43,7.64,6.61-7.63-.11-17.71,5.19-19.56,3.52,14.8-3.42,20.49,1.87,26.98,3.3,1.08,4.64,1.15,8,1.48l-.72-4.73c1.17-.7,1.27-.84,2.58-1.18-.52-1.51-.68-2.35-1.76-3.56-2.33-.03-1.22-.26-3.42.92-.45-4.56-.75-9.13-.89-13.7l1.26.35c1.78,5.67,12.41,16.87,11.13,25.42l-1.09.74,1.54-.91-.77,1.48-4.85.05-9.68-2.96-10.79-3.72Z"/>
      <path class="cls-9" d="M2785,606.88c-1.92-1-3.05-1.79-4.84-3.02-1.56-5.13-1.03-6.66.86-11.5l1.82-.02c-.31,5.8-1.85,7.41,1.28,12.8l2.31.11c2.16-2.09,2.57-3.32,4.94-3.32.51,1.74.32,2.39.12,4.16l.91.25c.48-3.45.47-9.77,2.03-11.87l1.41.02c.88,2.58,1.41,12.45,2.37,16.96l-13.21-4.57Z"/>
      <path class="cls-16" d="M2698.27,577.86c11.41-.5,51.67-1.24,62.55-.25,8.18.72,33.97-.42,22.02,14.74l-1.82.02c-1.89,4.84-2.42,6.36-.86,11.5,1.79,1.23,2.92,2.02,4.84,3.02-8.09-1.6-37.17-11.96-45.74-15.08-4.19-.77-13.61-3.79-18.11-5.12-7.29-2.76-17.77-7.11-25.29-7.45l.41-1.15,1.99-.23Z"/>
      <path class="cls-39" d="M2695.87,579.24l.41-1.15,1.99-.23c6.41,1.93,33.92.58,43.94,1.71-3.57,1.98-18.64,4.16-19.58,5.24,7.64,4.18,11.34,1.84,16.63,7-4.19-.77-13.61-3.79-18.11-5.12-7.29-2.76-17.77-7.11-25.29-7.45Z"/>
      <path class="cls-33" d="M2695.87,579.24c7.52.34,18,4.68,25.29,7.45-3.12.35-4.14-.06-6.35,1.67,3.74,4.26,5.56,2.02,7.68,6.62-.83.42-1.99,1.06-2.83,1.36-6.91-4.37-17.45-12.19-23.79-17.1Z"/>
      <path class="cls-15" d="M3285.19,611.77c16.77-1.85,31.6,3.37,37.17,20.7,2.63,7.97,1.95,16.65-1.88,24.12-5.86,11.28-14.85,15.18-26.09,18.71-40.66,4.39-58.24-48.35-9.2-63.53Z"/>
      <path class="cls-20" d="M3288.71,624.58c29.65-3.42,32.75,26.87,2.76,37.38-29.29,3.48-34.56-26.07-2.76-37.38Z"/>
      <path class="cls-39" d="M3135.82,478.27c-5.5-14.93.38-31.67,14.02-39.89,13.63-8.21,31.18-5.58,41.81,6.27,10.62,11.85,11.34,29.58,1.7,42.24-9.65,12.67-26.92,16.7-41.17,9.61-7.58-3.77-13.43-10.29-16.36-18.23Z"/>
      <path class="cls-34" d="M3135.82,478.27c5.44,3.06,11.95,10.44,16.89,15.19.17,1.67.26,1.58-.53,3.04-7.58-3.77-13.43-10.29-16.36-18.23Z"/>
      <path class="cls-20" d="M3169.08,444.7c5.8.75,7.79,1.2,12.78,4.51,21.68,22.88-21.38,53.77-34.78,29.8-7.47-13.35,10.82-29.74,22-34.31Z"/>
      <path class="cls-38" d="M2560.77,1086.87c10.44,12.78,9.52,31.38-2.13,43.07-11.65,11.69-30.25,12.67-43.06,2.28-12.82-10.39-15.69-28.8-6.66-42.6,9.03-13.81,27.04-18.55,41.7-10.97,3.91,2.02,7.36,4.82,10.15,8.23Z"/>
      <path class="cls-20" d="M2556.85,1099.34c-.42,11.76-10.37,26.8-21.49,28.38-35.82,5.08-15.62-58.9,16.71-36.12,3.33-.85,2.41-1.15,4.99-.04,1.16,2.83.41,4.71-.2,7.78Z"/>
      <path class="cls-34" d="M2552.06,1091.6c3.33-.85,2.41-1.15,4.99-.04,1.16,2.83.41,4.71-.2,7.78-1.3-2.34-3.33-5.4-4.79-7.75Z"/>
      <path class="cls-38" d="M3011.23,343.23c23.44,8.22,54.49,15.96,42.13,49.1-2.72,7.27-7.68,13.49-14.16,17.76-1.37.62-2.76,1.19-4.16,1.71-14.23,5.27-31.16-1.96-44.29-8l-1.28-.95c8.38-19.98,14.18-39.73,21.76-59.62Z"/>
      <path class="cls-20" d="M3013.78,376.88c1.44-4.59,4.51-16.13,7.76-18.78l2.3.61,5.75,2.22c13.02,5.59,14.03,14.02,10.28,26.71-2.55,5.83-4.19,8.29-8.79,12.79-9.56,4.7-15.81,1.65-25.46-1.54.63-3.73,6.56-18.07,8.16-22.01Z"/>
      <path class="cls-34" d="M3005.62,398.89c9.65,3.19,15.9,6.24,25.46,1.54.94,4.01,1.37,6.26,4.74,8.88l3.38.78c-1.37.62-2.76,1.19-4.16,1.71-14.23,5.27-31.16-1.96-44.29-8,5.79-.11,11.24.43,14.87-4.91Z"/>
      <path class="cls-34" d="M2768.1,1198.4c5.48,2.24,11.87,2.82,17.77,3.65,11.25,2.36,19.75,4.25,26.55,14.61.64.98,1.26,1.98,1.86,3,2.64,8.92,2.64,15.93.35,25.07-14.57,27.05-32.06,20.95-57.82,15.83,3.56-18.39,7.01-45.05,11.29-62.16Z"/>
      <path class="cls-20" d="M2778.81,1211.04c6.25.84,9.82,1.26,15.47,3.97,16.97,10.52,10.49,46.32-22.92,38.07,1.58-8.69,3.3-19.8,5.34-28.21.29-3.73,1.49-9.95,2.11-13.83Z"/>
      <path class="cls-16" d="M2629.49,1149.12l2.23-3.26c4.5-.53,7.32,2.26,11.54,4.98-.4,13.71-.97,27.41-1.71,41.1,11.07-8.71,22.55-15.94,33.67-24.31l11.69,5.61c-9.97,18.23-19.72,37.79-29.75,55.67l-10.75-5.45c1.56-2.95,9.69-17.81,10.12-19.93.78-4.31,2.65-5.49,1.07-8.48l-3.66-.23c-7.25,5.52-14.39,14.08-23.02,9.09-1.48-6.56,1.72-21.03-2.32-24.57l-3.34,2.07c-.49.92-1.77,3.17-2.03,4.03-3.38,5.39-5.54,9.4-8.41,14.99-1.12,2.17-1.22,2.28-2.97,4.01-3.1.31-7.14-2.94-10-4.78l19.98-36.09c-1.32-7.6.13-11.41,7.65-14.46Z"/>
      <path class="cls-23" d="M2625.27,1181.42l6.85-13.58c-.1,5.78-.33,32.6-1.19,36.09-1.48-6.56,1.72-21.03-2.32-24.57l-3.34,2.07Z"/>
      <path class="cls-23" d="M2667.41,1185.48c-1.95,3.33-8.94,15.7-10.87,18.05.78-4.31,2.65-5.49,1.07-8.48l-3.66-.23c4.42-3.03,9.17-6.17,13.46-9.35Z"/>
      <path class="cls-4" d="M2621.83,1163.58c-1.32-7.6.13-11.41,7.65-14.46-2.58,5.31-4.66,9.31-7.65,14.46Z"/>
      <path class="cls-15" d="M3263.13,932.74c19.45,8.26,38.97,16.33,58.57,24.23l-4.59,11.32-16.99-6.99-6.02.75-.88,1.29c2.44,2.72,3.32,3.66,5.21,6.84-.22,1.44-.43,2.94-.7,4.37,2.91,3.98,3.17,3.14,3.65,7.46-3.53,4.37-11.31,2.92-16.83,3.58-4.41.76-6.77.1-9.32,2.5l-.05,3.14,14.03,6.4,12.76,6-5.2,10.73-12.78-6.2-44.32-22.03,4.88-9.92c4.69-2,34.35-.83,41.17-.56-1.85-3.17-23.21-27.07-26.72-31.09l4.13-11.81Z"/>
      <path class="cls-39" d="M3289.21,997.63l12.76,6-5.2,10.73-12.78-6.2c-.31-6.75.36-6.65,5.22-10.53Z"/>
      <path class="cls-4" d="M3286.98,955.62l13.14,5.68-6.02.75-.88,1.29c2.44,2.72,3.32,3.66,5.21,6.84-.22,1.44-.43,2.94-.7,4.37l-13.04-15.41,2.29-3.51Z"/>
      <path class="cls-39" d="M3244.55,976.21c4.69-2,34.35-.83,41.17-.56-.69,1.21-.46,1.45-1.43,1.64-5.67,1.09-35.35.93-39.74-1.07Z"/>
      <path class="cls-40" d="M3261.58,985.21l22.97.38c-4.41.76-6.77.1-9.32,2.5l-.05,3.14c-3.04-1.72-10.13-4.53-13.6-6.02Z"/>
      <path class="cls-40" d="M3276.48,950.78l10.5,4.85-2.29,3.51c-1.47-1.8-6.35-6.47-8.21-8.36Z"/>
      <path class="cls-38" d="M2874.52,329.77c-.03-4.52-.78-5.26,1.2-8.57,3.28-1.17,7.59-.65,11.2-.48.07,9.92,1.53,57.49-.35,64.1-3.77,1.01-5.82.79-9.7.69-2.69-3.65-9.5-13.33-12.45-15.91-10.56-1.92-11.21-16.37-17.11-18.06-3.11,7.19.57,26.88-1.77,33.74l-12.93.19c-.6-21.26-.62-43.19-.91-64.5,1.57-.06,3.14-.1,4.71-.12,6.67-.07,6.57.7,10.8,4.81,4.55,6.16,9.25,12.71,14.03,18.66l5.01,6.33,4.97,2.89c5.96-2.59-1.59-14.66,3.3-23.76Z"/>
      <path class="cls-4" d="M2843.74,341.42l9.43,12.3,10.18,13.57,1.07,2.31c-10.56-1.92-11.21-16.37-17.11-18.06-3.11,7.19.57,26.88-1.77,33.74-1.55-5.45-1.59-35.76-1.8-43.85Z"/>
      <path class="cls-23" d="M2866.25,350.64l4.97,2.89c5.96-2.59-1.59-14.66,3.3-23.76.16,10.78.1,22.5.59,33.2l-8.86-12.33Z"/>
      <path class="cls-16" d="M2853.17,353.72c3.67.15,4.39.08,7.39,2.37,2.58,3.53,2.02,6.95,2.79,11.2l-10.18-13.57Z"/>
      <path class="cls-39" d="M2942.41,326.81c9.87,1.86,19.68,4.01,29.43,6.43,8.61,4.86,9.18,5.67,13.09,14.44-1.62,13.67-4.35,18-17.16,22.97l12.56,30.59-15.57-3.6c-2.71-6.55-8-27.37-15.01-27.76-5.2,3.83-6.69,16.58-7.97,22.98l-13.43-3.13c5.17-20.86,9.85-41.84,14.06-62.92Z"/>
      <path class="cls-4" d="M2953.65,339.27c14.21,2.34,24.39,8.81,10.82,21.94-4.85.93-10.33-.37-15.27-1.18,1.67-6.65,3.05-13.98,4.45-20.76Z"/>
      <path class="cls-38" d="M2670.05,357.93c13.48-5.11,42.62-18.88,50.72,1.23,3.78,9.41.03,14.34-4.98,21.96,1.99,2.62,3.5,3.24,6.3,4.81,3.38,2.77,7.04,5.93,10.68,8.28l1.34,1.57,8.12,5.6c-3.79,1.27-11.4,4.17-15.04,4.25l-1.62-1.27-2.04-.35c-1.84-2.24-7.42-6.23-9.99-8.2-3.82-3.31-9.09-9.07-14.15-5.71-2.04,6.08,4.04,17.67,6.59,23.71l-12.7,4.86c-3.08-7.88-6.83-16.85-9.23-24.85-3.18-6.9-5.07-12.34-7.55-19.52-2.34-5.5-4.34-10.8-6.44-16.38Z"/>
      <path class="cls-16" d="M2734.1,395.79l8.12,5.6c-3.79,1.27-11.4,4.17-15.04,4.25l-1.62-1.27c4.63-.79,7.57-.43,9.89-4.66l-1.35-3.92Z"/>
      <path class="cls-4" d="M2696.92,358.65c13.65.25,17.14,15.67,1.28,22.22-2,.6-2.04.49-4.03.29-3.05-3.57-6.1-13.88-7.76-18.79l10.51-3.71Z"/>
      <path class="cls-38" d="M2431.01,572.78l5.28-10.38c19.44,10.47,39.05,21.96,58.43,32.14l-5.58,10.04c-4.03.32-8.52.58-12.47,1.23-8.25.5-20.12,1.35-28.21,2.64l.05.97-2.57,1.2c-.3,2.88.93,3.37,3.06,6.33,4.24,2.06,25.64,11.92,27.3,14.64-2.82,4.21-3.34,5-4.89,9.79-2.65-.13-54-27.11-59.27-30.47l4.96-10.6c14.84-1.61,30.47-3.91,45.23-4.91l2.82-4.1c-11.42-6.11-22.8-12.29-34.16-18.52Z"/>
      <path class="cls-40" d="M2433.92,610c5.46-.99,9.09-1.23,14.54-1.56l.05.97-2.57,1.2c-.3,2.88.93,3.37,3.06,6.33-5-2.38-10.03-4.69-15.08-6.95Z"/>
      <path class="cls-23" d="M2465.17,591.31l3.76,1.99.03.98c-2.75.7-3.78.92-6.61,1.14l2.82-4.1Z"/>
      <path class="cls-34" d="M2586.54,1112.15c16.39,12.24,36.11,18.91,24.38,42.57-11.71,8.31-16.25,4.63-19.83,6.71-.77,10.55-.86,20.5-.99,31.05-4.03-2.84-8.13-5.82-12.21-8.58.28-7.27,2.15-24.29-1.2-29.75-5.33-2.61-9.57,6.32-12.41,10.5-2.77,3.4-2.63,4.36-6.16,5.63-2.09-2.49-6.23-5.34-8.96-7.38,12.19-14.93,26.21-34.83,37.38-50.75Z"/>
      <path class="cls-4" d="M2591.2,1127.53c8.42,5.8,15.53,9.73,7.6,20.28-6.25,4.45-9.37,3.32-15.08-.55l-2.87-1.68c-.93-4.84,7.46-13.57,10.35-18.04Z"/>
      <path class="cls-20" d="M2583.72,1147.26c2.69.03,13.06-.08,15.08.55-6.25,4.45-9.37,3.32-15.08-.55Z"/>
      <path class="cls-15" d="M3176.65,520.79c15.35-12.74,35.01-28.38,49.05-42.06l8.21,9.4c-4.42,15.83-9.18,36-14.53,50.96,11.04-9.24,22.13-18.41,33.28-27.53l7.73,9.29c-6.41,5.31-46.51,39.79-50.83,40.08-.46-.38-2.71-2.27-3.06-2.41-.3-.44-.59-.88-.87-1.33-2.61-4.27-1.6-5.94-.48-11.06,1.61-2.7,6.95-23.86,8.11-28.32-.38-3.79,1.2-5.56-.48-8.65l-3.61-.26c-7.51,6.34-17.81,14.52-24.75,21.12l-7.77-9.24Z"/>
      <path class="cls-23" d="M3209.17,508.91l8.84-7.98c-1.56,5.45-3.41,11.43-4.75,16.88-.38-3.79,1.2-5.56-.48-8.65l-3.61-.26Z"/>
      <path class="cls-34" d="M2919.6,1205.02c3.77-.5,8.21-.97,11.89-1.65,1.41,18.67,4.04,44.29,6.83,62.83-2.85.35-7.4.79-10.07,1.37-2.39-2.81-6.64-8.22-9.4-10.23-3.32-4.41-9.78-11.39-13.58-15.74-4.38-5.14-7.75-9.16-12.7-13.8,1.56,6.91,1.88,12.1,2.45,19.13.73,5.3,3.4,17.95,1.7,22.93-.27.81-2.42,1.11-3.55,1.42-2,.12-3.29.04-5.29-.07-3.58-3.71-3.65-19.54-4.41-26.28l-.21-.7c-.76-10.65-1.77-24.68-4.13-34.92,4.02-.79,7.11-1.15,11.18-1.57,10.11,10.88,25.41,26.58,34.14,38.28-1.7-13.58-3.05-27.55-4.85-41Z"/>
      <path class="cls-38" d="M2895.02,1246.93c-4.38-4.1-6.52-12.77-4.33-18.62l1.88-.51c1.56,6.91,1.88,12.1,2.45,19.13Z"/>
      <path class="cls-15" d="M3282.44,839.31c-.69-.16-.94-.62-1.62-1.26-.61-3.86-.72-7.4,2.12-10.15,13.04,1.95,52.41,5.57,62.08,8.2.78,3.54.19,5.24-.53,8.72-4.02,4.76-24.43,13.57-31.41,17.48-1.27,3.54-1.25,3.99-.51,7.68,9.35,1.61,19.94,2.86,29.42,4.2l-1.9,11.04c-17.88-1.77-44.2-6.33-62.1-9.28l1.32-9.76c12.71-5.91,24.59-12.06,37.03-18.5l.62-4.94c-7.83.11-26.02-2.46-34.52-3.43Z"/>
      <path class="cls-40" d="M3299.48,868.92c4.41-2.25,9.12-4.44,13.6-6.61-1.27,3.54-1.25,3.99-.51,7.68l-13.09-1.07Z"/>
      <path class="cls-4" d="M3282.44,839.31c-.69-.16-.94-.62-1.62-1.26-.61-3.86-.72-7.4,2.12-10.15.99,5.17.85,6.25-.5,11.41Z"/>
      <path class="cls-40" d="M3316.96,842.74l4.67.89.63,1.17c-2.12,1.14-3.67,1.99-5.92,2.88l.62-4.94Z"/>
      <path class="cls-15" d="M3233.94,561.54c17.31-13.74,44.04-20.36,55.81,3.76,4.38,7.02,8.96,15.21,1.61,21.78-9.03,1.7-7.74-7.59-9.32-13.81-4.36-6.06-7.22-9.71-14.86-11.01-18.44-3.14-37.24,18.88-24.55,35.4,1.54,2.01,3.43,3.95,5.16,5.79l11.85-7.05-6.2-8.48c2.03-1.54,6.72-5.55,8.86-5.69,3.38.11,3.3-.52,5.46,2.11,2.93,3.56,6.18,8.4,5.6,13.07l1.11,2.06c-2.13,4.39-23.71,18.57-28.77,15.92-.68-.47-1.35-.95-2.01-1.45-8.54-6.38-15.3-16.22-16.85-26.9l-1.15-.46c.12-11.35,1.94-15.79,8.25-25.04Z"/>
      <path class="cls-39" d="M3226.84,587.03c3.53,3.87,18.15,23.61,18.86,28.35-.68-.47-1.35-.95-2.01-1.45-8.54-6.38-15.3-16.22-16.85-26.9Z"/>
      <path class="cls-4" d="M3262.3,582.22c3.38.11,3.3-.52,5.46,2.11,2.93,3.56,6.18,8.4,5.6,13.07-4.33-4.59-7.81-9.81-11.06-15.18Z"/>
      <path class="cls-34" d="M2420.69,793.97l18.41-.42c-.06,4.41-.21,13.43.31,17.48,3.04,23.68-19.42,36.61-36.77,17.92-4.32-8.73-4.03-12.27-4.1-21.82l-22.1.73-.28-13c14.85-.03,29.69-.33,44.53-.9Z"/>
      <path class="cls-20" d="M2429.43,806.1c.31,6.52.29,10.35-2.22,16.36-15.4,8.33-18.58-3.75-19.22-15.93l21.43-.43Z"/>
      <path class="cls-38" d="M2386.37,897.45c19.15,3.24,46.83,5.83,66.66,8.24l3.24,12.33-28.95,19.03c-7.56,5.43-17.77,11.69-25.72,16.9l-4.14-12.6,13.05-8.29-6.16-21.96-15.14-1.65-2.84-12Z"/>
      <path class="cls-4" d="M2414.63,912.19l26.42,2.35-9.5,5.87-12.49,7.62c-1.35-5.23-2.96-10.62-4.43-15.84Z"/>
      <path class="cls-38" d="M2807.8,322.96l1.28,10.34-27.64,4.26,2.84,15.73c8.38-1.48,15.89-3.77,23.8-.71l.87,3.76c-6.94,5.64-14.33,5.56-23.21,6.74.94,5.44,2.25,11.97,2.75,17.39l28.41-4.55,1.5,10.8c-13.59,1.73-27.85,3.7-41.28,6.43-.41-2.33-1.48-9.37-2.09-11.26-8.09-8.82-8.31-24.5-5.7-35.64l-2.76-16.75,41.23-6.54Z"/>
      <path class="cls-4" d="M2775.03,381.89c-8.09-8.82-8.31-24.5-5.7-35.64,2.07,11.89,4.21,23.66,5.7,35.64Z"/>
      <path class="cls-34" d="M2549.89,462.37c-22.45-17.45-1.08-43.07,19.15-39.93,1.39,2.88.79,3.28.46,6.77-5.84,8.53-15.65,1.34-17.69,15.36,3.67,8.79,20.2,2.29,28.1,2.3,40.8.07,14.37,50-9.95,42.11-2.82-2.86-3.82-7.15-.64-10.05,4.23-.43,8.18-.42,11.74-2.66.07-2.03,1.7-3.57,3.03-5.24-.41-19.79-27.96,3.6-34.21-8.67Z"/>
      <path class="cls-4" d="M2549.89,462.37c15.56,2.6,29.33-6.21,37.51.87,3.04,6.03-1.44,10.28-6.33,13.05.07-2.03,1.7-3.57,3.03-5.24-.41-19.79-27.96,3.6-34.21-8.67Z"/>
      <path class="cls-39" d="M2981.76,1193.35c2.61-2.27,9.03-3.56,12.67-4.57-1.09,10.19-3.18,25.47-3.73,35.34-1.43,10.64-2.8,20.83-3.73,31.55-7.75,2.92-10.1,5.14-14.83-2.07-1.61-2.04-3.44-4.9-4.94-7.11-3-3.02-24.73-36.6-30.01-43.83,4.65-.79,9.54-1.94,14.17-2.95l7,10.7c8.23,2.88,12.29,14.28,17.1,20.27,2.18-3,.29-31.35,6.3-37.33Z"/>
      <path class="cls-4" d="M2958.36,1210.42c8.23,2.88,12.29,14.28,17.1,20.27,2.18-3,.29-31.35,6.3-37.33-1.07,14.35-2.36,28.69-3.87,43l-3.36.06c-3.3-6.6-11.91-19.31-16.17-26Z"/>
      <path class="cls-34" d="M2967.2,1246.49c3.37-.14,2.51-.6,4.84.97.73,2.85.56,3.15.1,6.14-1.61-2.04-3.44-4.9-4.94-7.11Z"/>
      <path class="cls-40" d="M2974.53,1236.41l3.36-.06-.11,2.79-.87.69-2.38-3.42Z"/>
      <path class="cls-34" d="M2519.26,456.82l7.75,7.5-19.51,19.75,12.34,10.93c2.15-2.28,4.55-4.62,6.77-6.87l9.17-9.96,7.22,7.56-7.62,7.77-8.21,8.15,13.56,12.14c2.6-2.8,8.55-9.58,11.3-11.58l7.54-8.68,7.82,8.15c-2.99,3.01-9.22,9.64-12.3,11.99-2.19,3.52-12.1,13.32-15.5,16.74-3.18-2.82-15.82-13.68-17.95-16.13-3.42-2.64-8.21-7.27-11.53-10.3-4.99-3.78-14.3-12.6-19.48-17.14l28.61-30.02Z"/>
      <path class="cls-38" d="M2526.61,488.13l9.17-9.96,7.22,7.56-7.62,7.77c-4.88-.94-6.64-.79-8.77-5.36Z"/>
      <path class="cls-38" d="M2552.04,502.2l7.54-8.68,7.82,8.15c-2.99,3.01-9.22,9.64-12.3,11.99.18-3.43,3.95-8.5,6.01-12.88l-.65-1.5-2.84-.16c-2.24,1.57-3.08,1.93-5.59,3.08Z"/>
      <path class="cls-16" d="M2510.12,503.97c6.48-.16,11.21,3.6,11.53,10.3-3.42-2.64-8.21-7.27-11.53-10.3Z"/>
      <path class="cls-34" d="M2484.61,987.33l3.95,6.11c1.1,1.85,4.1,7.12,5.36,8.37l.04.54c2.06,3.67,3.72,6.68,6.13,10.12,2.05,4.09,2.71,3.64,1.83,7.07-2.38,1.83-4.38,3.19-6.87,4.82l-12.61-20.76c-3.74,2.23-10.2,5.04-11.73,8.45.12,3.25,1.34,4.48,3.13,7.23l6.56,10.52-8.56,5.16-7.92-12.77-3.59-5.92c-4.83,2.8-10.44,6.27-15.32,8.81l14.1,22.53c-1.72,1.04-7.09,4.6-8.66,4.59-3.22-3.3-6.69-9.64-9.17-13.76l-1.77-2.45-4.4-8.22c-.92-.79-4.83-7.69-5.73-9.22,17.65-9.35,38.31-20.91,55.24-31.21Z"/>
      <path class="cls-38" d="M2441.27,1038.43c9.1,2.07,7.63,7.22,9.17,13.76-3.22-3.3-6.69-9.64-9.17-13.76Z"/>
      <path class="cls-38" d="M2435.1,1027.76c3.93.58,2.77-.07,5.48,2.03.28,2.82-.14,3.42-1.08,6.19l-4.4-8.22Z"/>
      <path class="cls-34" d="M3065.64,1157.51c5.41-10.66,14.35,3.01,16.87-9.03l1.21.26c1.8,2.52,4.14,5.6,5.78,8.14-3.88-.34-2.99-.88-5.21.98-1,5.06-.11,5.07-3.26,7.65-6.81,2.07-20.49-.12-18.94,12.18,8.39,8.59,41-4.79,42.31,22.39.84,17.46-30,26.68-36.54,19.35,2.52-17.55,17.46-.78,24.96-17.75-1.61-13.97-32.22.85-42.16-19.07-1.67-7.13-.68-9.94,2.51-16.29,4.84-4.34,7.01-5.6,12.47-8.81Z"/>
      <path class="cls-4" d="M3065.64,1157.51c5.41-10.66,14.35,3.01,16.87-9.03l1.21.26c1.8,2.52,4.14,5.6,5.78,8.14-3.88-.34-2.99-.88-5.21.98-1,5.06-.11,5.07-3.26,7.65.85-5,1.93-6.27-2.31-9.44-3.89-.84-9.03.61-13.08,1.44Z"/>
      <path class="cls-38" d="M3127.09,408.78c-17.9-12.01-42,25.95-24.46,38.05,5.34,3.69,16.44.97,20.34,6.52.41,2.55.64,3.24-.92,5.65-1.29,1.76-3.92,3.03-6.03,3.02-16.73-.01-33-14.13-33.08-31.32-.08-18.61,16.93-36.02,35.74-35.34,9.24.33,17.82,4.61,24.03,11.38,2.99,3.23,5.06,7.33,7.1,11.21-3.33,1.4-7.84,3.82-11.13,2.99-1.01-1.48-1.33-1.66-1.85-3.36-6.35-.21-8.08-3.25-9.74-8.8Z"/>
      <path class="cls-4" d="M3127.09,408.78c5.05,2.5,6.6,3.69,9.74,8.8-6.35-.21-8.08-3.25-9.74-8.8Z"/>
      <path class="cls-34" d="M2999.58,1187.11c12.18-4.24,24.26-9.58,36.51-13.56,1.73,4.38,2.77,4.97,2.19,9.02-2.32,2.29-4.41,2.55-7.57,3.47-3.75,1.93-11.12,4.42-15.32,5.97l6.09,14.69c6.65-2.57,13.26-5.23,19.83-7.99l3.71,9.65-20.15,7.44,6.25,15.88c8.5-2.96,16.67-6.22,25.03-9.53l4,9.85-37.43,13.72c-7.08-19.36-15.33-39.55-23.14-58.6Z"/>
      <path class="cls-38" d="M3036.09,1173.55c1.73,4.38,2.77,4.97,2.19,9.02-2.32,2.29-4.41,2.55-7.57,3.47,3.7-6.67,4.39-3.4,5.38-12.49Z"/>
      <path class="cls-15" d="M3234.5,994.97l8.93,5.63c-4.51,7.31-9.18,14.53-13.99,21.65,4.11,2.12,9.6,5.77,13.65,8.29,3.93-5.91,7.82-12.21,11.66-18.21l8.15,5.83-11.62,17.52c4.26,2.72,10.45,7,14.98,8.71,4.6-7.05,9.43-14.25,13.69-21.48l9.31,5.29c-5.84,9.26-12,19.48-18.22,28.4l-2.53,3.62c-3.59.58-47.64-28.85-54.28-33.11,7.05-10.79,13.73-21.01,20.27-32.13Z"/>
      <path class="cls-34" d="M2698.31,1177.72c12.24,4.77,24.88,8.81,37.34,12.96l-4.13,9.12c-8.19-2.52-16.33-5.22-24.4-8.08-1.6,4.76-3.48,9.74-5.19,14.49l20.7,7.02-3.85,9.4c-5.14-1.7-14.14-6.78-19.39-5.94-1.19.19-1.84,2.63-2.51,4.14l-4.05,10.62,26.23,8.83c-1.28,3-2.54,6.63-3.7,9.74l-37.92-13c7.14-19.71,14.09-39.47,20.88-59.3Z"/>
      <path class="cls-15" d="M3212.35,1039.75c2.3,1.01,2.18.94,3.46,3.12-.23,4.86.37,3-2.26,7.05-1.99.65-4.06,1.4-6.1,1.78-.84.95-1.66,1.93-2.44,2.93-2.27,2.92-2.95,4.6-2.52,8.27,7.6,10.94,36.64-14.01,47.74,6.12,10.32,18.7-24.41,46.25-29.26,28.66,1.7-8.89,20.25-3.71,18.35-20.48-7.7-9.5-30.2,9.02-41.72.27-17.47-13.26-2.27-33.48,14.75-37.71Z"/>
      <path class="cls-39" d="M3212.35,1039.75c2.3,1.01,2.18.94,3.46,3.12-.23,4.86.37,3-2.26,7.05-1.99.65-4.06,1.4-6.1,1.78,4.56-6.05,5.34-2.61,4.9-11.94Z"/>
      <path class="cls-39" d="M3180.88,1076.58c1.84.94,2.54,2.85,3.3,4.68-1,9.74-10.79,2.56-17.66,18.42,3.46,10.58,32.45-6.32,42.77,3.53,18.9,18.04-1.24,35.36-20.29,38.74-2.5-.35-2.77-.78-4.87-2.37l-.27-2.38c3.9-9.25,19.64-5.23,20.88-20.03-5.29-10.04-30.89,4.95-40.68-3-19.27-15.65-.3-33.39,16.82-37.61Z"/>
      <path class="cls-15" d="M3275.74,887.24l9.54,2.63c-1.61,7.7-3.42,14.6-5.47,22.21l14.92,4.16,4.4-19.35c2.9.87,6.85,1.7,9.89,2.43l-4.83,18.84,16.39,4.53c1.08-4.64,4.24-20.23,6.92-23.3h2.76c2.84.63,3.5.57,5.72,2.3.68,5-6.72,29.08-8.56,35.49-20.07-5.33-40.18-10.5-60.34-15.51,2.95-11.46,5.84-22.94,8.66-34.43Z"/>
      <path class="cls-34" d="M2620.91,381.69l5.71,9.42-16.65,10.04c9.67,14.67,20.05,31.14,30.18,45.32-3.61,2.2-8.29,4.86-11.63,7.3-3.66-5.43-19.2-27.93-21.3-32.76l-2.69-3.09c-6.23.43-6.39-3.18-15.81-3.09-1.76,1.12-4.02,2.41-5.45,3.86l-3.16.37c-4.62-2.37-6.67-6.1-4.72-11.06l1.72.56c14.55-8.12,29.08-18.32,43.8-26.86Z"/>
      <path class="cls-4" d="M2588.73,414.82c2.98-2.3,6.06-5.16,9.63-6.01l2.07,1.43,4.1,7.67c-6.23.43-6.39-3.18-15.81-3.09Z"/>
      <path class="cls-4" d="M2583.28,418.68l-3.16.37c-4.62-2.37-6.67-6.1-4.72-11.06l1.72.56c1.39,3.33,4.1,7.06,6.17,10.14Z"/>
      <path class="cls-16" d="M2600.43,410.24c3.35.91,4.05.96,6.21,3.61,1.14,3.26,1.09,3.71.58,7.15l-2.69-3.09-4.1-7.67Z"/>
      <path class="cls-34" d="M2488.9,532.08c1.28-3.56.1-4.68,1.68-8.95,3.19-1.52,2.43-1.02,6.48-.37,2.56,4.02,8.55,12.93,10.5,16.77,2.54,3.23,4.03,5.5,6.22,8.99l2.78,5.17c.84,1.23,1.79,2.5,2.44,3.82l-.61,1.2c-2.48,3.18-4.62,5.45-5.73,9.34-12.03-5.02-53.07-16.21-67.71-20.79,2.91-3.29,5.59-7.52,8.07-11.21l8.65,2.81c9.12-2.52,26.56,9.86,33.03,6.98-1.75-5.66-6.27-7.37-8.39-15.27l2.61,1.5Z"/>
      <path class="cls-4" d="M2486.29,530.58l2.61,1.5c4.59,7.01,9.4,13.88,14.43,20.59-13.97-5.21-28.2-8.91-41.68-13.8,9.12-2.52,26.56,9.86,33.03,6.98-1.75-5.66-6.27-7.37-8.39-15.27Z"/>
      <path class="cls-16" d="M2507.55,539.53c2.54,3.23,4.03,5.5,6.22,8.99l2.78,5.17c-6.78-3.65-8.81-5.95-8.99-14.17Z"/>
      <path class="cls-38" d="M2459.37,1067.2c17.33-12.31,34.45-24.91,51.35-37.79,7.73,10.31,15.76,20.39,24.08,30.22l-7.85,6.1c-5.26-6.17-12.17-13.88-16.81-20.31-4.46,3.64-9.26,7.74-13.8,11.19,3.93,4.18,11.54,11.41,12.98,16.62-.94,1.31-1.49,2.16-2.67,3.3l-3.47,1.74c-3.6-.59-2.86-.97-5.87-4.56-2.83-3.57-5.96-7.99-9.63-10.54l-2.64.77c-3.5,3.11-6.16,5.39-9.92,8.16l-7.88,5.91-7.87-10.81Z"/>
      <path class="cls-16" d="M2497.31,1073.72l3.95-1.3c1.46,1.22,3.78,3.36,5.39,4.12l-3.47,1.74c-3.6-.59-2.86-.97-5.87-4.56Z"/>
      <path class="cls-16" d="M2475.12,1072.1c-.07-7.69,2.93-7.2,9.92-8.16-3.5,3.11-6.16,5.39-9.92,8.16Z"/>
      <path class="cls-39" d="M3123.53,1122.35l5.97,8.74-14.78,10.22c10.26,14.26,20.65,28.43,31.16,42.51l-10.78,7.51c-1.82-2.45-9.71-12.78-10.64-14.95-3.78-4.44-5.37-6.7-8.46-11.65-1.8-1.42-10.11-13.6-12-16.29-3.46,2.48-10.87,8.48-14.5,8.44-1.64-2.54-3.98-5.62-5.78-8.14,10.52-5.52,29.57-19.26,39.81-26.39Z"/>
      <path class="cls-34" d="M2452.16,940.81l9.78-4.02c5.94,14.36,12.11,28.62,18.51,42.78l-10.03,3.65-6.73-15.39c-11.18,4.7-23.16,10.25-34.44,14.34l-7.73,3.48c-2.05.92-3.07,1.25-5.23,1.89-4.17-2.34-4.53-6.07-6.44-11.21,14.88-5.35,33.89-13.84,49.04-19.93l-6.74-15.59Z"/>
      <path class="cls-38" d="M2421.53,985.64c-3.13-2.55-2.93-2.39-2.24-6.05l-1.23.38.38,1.58.9-2.2c3.25.82,6.46,1.98,9.92,2.81l-7.73,3.48Z"/>
      <path class="cls-15" d="M3285.22,776.46c3.27-.12,5.87-.47,8.91.83,2.88,4.28,1.74,9.44,1.51,15.15,17.05-.38,35.08-.11,52.21-.13l-.06,12.4-16.19-.02-36.03-.27c.05,4.81.93,13.72-2.09,16.92-3.17-.13-5.68.2-8.03-1.7-.87-4.6-.19-35.82-.23-43.18Z"/>
      <path class="cls-38" d="M2440.94,846.04c1.3,1.69,1.89,9.46,2.25,12.21-17.27,2.2-34.57,4.17-51.89,5.89l4.27,24.88-10.29,1.82c-2.5-10.74-4.34-26.09-5.79-37.18,20.46-2.72,40.95-5.26,61.46-7.62Z"/>
      <path class="cls-34" d="M2402.34,633.29l.34-1.89c5.07-1.27,10.8,3.12,13.32,7.36,15.97,6.64,31.99,13.18,48.04,19.62-1.68,4.04-3.3,8.47-4.9,12.58-19.15-8.75-41.54-17.14-61.25-25.5,1.64-3.89,3.05-8.16,4.46-12.17Z"/>
      <path class="cls-4" d="M2402.34,633.29l.34-1.89c5.07-1.27,10.8,3.12,13.32,7.36-4.52-1.89-9.08-3.72-13.66-5.47Z"/>
      <path class="cls-34" d="M2647.6,367.76c9.64,19.46,19.6,38.76,29.87,57.89l-11.77,6.22-4.85-9.09-7.51-14.45c-6.11-10.82-12.17-23.91-18.4-34.09,4.14-2.11,8.6-4.28,12.65-6.48Z"/>
      <path class="cls-16" d="M2653.34,408.33c6.04,2.77,9.21,7.28,7.51,14.45l-7.51-14.45Z"/>
      <path class="cls-15" d="M3139.95,1109.35c4.88,3.13,34.43,39.94,41.41,47.7l-9.59,7.73c-3.58-1.38-36.17-40.99-41.69-47.4l9.87-8.04Z"/>
      <path class="cls-38" d="M2852.28,1208.7l13.3.15c-.69,20.58.22,42.48-.15,63.28l-13.08-.14c.26-21.09.24-42.19-.07-63.29Z"/>
      <path class="cls-16" d="M2472.25,509.67c2.74-3.78,5.53-7.52,8.36-11.23l16.43,24.32c-4.05-.65-3.29-1.15-6.48.37-1.58,4.27-.4,5.39-1.68,8.95l-2.61-1.5c-.37-3.13-2.22-5.15-4.07-7.81-3.49-5.04-5.87-8.41-9.97-13.1Z"/>
      <path class="cls-34" d="M2827.78,1205.89c8.14.1,9.21-.53,14.55,5.7-2.56,6.52-3.42,8.74-7.3,14.73-2.83,2.9-4.52,4.04-8.64,3.58l-.55-1.29,1.41-1.85c3.96-8.25,2.17-11.74.53-20.86Z"/>
    </g>
    <path class="cls-13" d="M2861.94,260.09c-301.57,0-546.04,240.26-546.04,536.64s244.47,536.64,546.04,536.64,546.04-240.26,546.04-536.64-244.47-536.64-546.04-536.64ZM3234.14,1162.04c-48.33,47.5-104.61,84.79-167.28,110.84-64.89,26.97-133.84,40.65-204.92,40.65s-140.04-13.68-204.93-40.65c-62.66-26.05-118.94-63.34-167.27-110.84-48.3-47.47-86.22-102.74-112.7-164.27-27.4-63.67-41.3-131.31-41.3-201.04s13.9-137.37,41.3-201.04c26.48-61.53,64.4-116.8,112.7-164.27,48.33-47.5,104.61-84.79,167.27-110.84,64.89-26.97,133.84-40.65,204.93-40.65s140.03,13.68,204.92,40.65c62.67,26.05,118.95,63.34,167.28,110.84,48.3,47.47,86.22,102.74,112.7,164.27,27.4,63.67,41.29,131.31,41.29,201.04s-13.89,137.37-41.29,201.04c-26.48,61.53-64.4,116.8-112.7,164.27Z"/>
    <path class="cls-20" d="M3221.86,649.48c-19.47-45.26-47.43-85.97-83.1-121.02-35.85-35.24-77.61-62.9-124.12-82.24-48.26-20.06-99.63-30.23-152.7-30.23s-104.44,10.17-152.7,30.23c-46.51,19.34-88.27,47-124.13,82.24-35.66,35.05-63.62,75.76-83.09,121.02-20.05,46.58-30.21,96.12-30.21,147.25s10.16,100.67,30.21,147.25c19.47,45.25,47.43,85.97,83.09,121.02,35.86,35.23,77.62,62.9,124.13,82.24,48.25,20.06,99.63,30.23,152.7,30.23s104.44-10.17,152.7-30.23c46.51-19.34,88.27-47.01,124.13-82.24,35.66-35.05,63.62-75.77,83.09-121.02,20.05-46.58,30.21-96.12,30.21-147.25s-10.16-100.68-30.21-147.25ZM3208.84,938.38c-18.74,43.56-45.66,82.75-80.01,116.51-34.55,33.96-74.8,60.63-119.63,79.26-46.52,19.34-96.07,29.14-147.26,29.14s-100.74-9.8-147.26-29.14c-44.83-18.63-85.08-45.3-119.63-79.26-34.35-33.76-61.27-72.96-80.01-116.51-19.28-44.8-29.06-92.46-29.06-141.65s9.78-96.85,29.06-141.65c18.74-43.56,45.66-82.76,80.01-116.51,34.55-33.96,74.8-60.63,119.63-79.26,46.52-19.34,96.07-29.15,147.26-29.15s100.74,9.81,147.26,29.15c44.83,18.63,85.08,45.3,119.63,79.26,34.35,33.75,61.27,72.95,80.01,116.51,19.28,44.8,29.06,92.46,29.06,141.65s-9.78,96.85-29.06,141.65Z"/>
    <path class="cls-13" d="M3221.86,649.48c-19.47-45.26-47.43-85.97-83.1-121.02-35.85-35.24-77.61-62.9-124.12-82.24-48.26-20.06-99.63-30.23-152.7-30.23s-104.44,10.17-152.7,30.23c-46.51,19.34-88.27,47-124.13,82.24-35.66,35.05-63.62,75.76-83.09,121.02-20.05,46.58-30.21,96.12-30.21,147.25s10.16,100.67,30.21,147.25c19.47,45.25,47.43,85.97,83.09,121.02,35.86,35.23,77.62,62.9,124.13,82.24,48.25,20.06,99.63,30.23,152.7,30.23s104.44-10.17,152.7-30.23c46.51-19.34,88.27-47.01,124.13-82.24,35.66-35.05,63.62-75.77,83.09-121.02,20.05-46.58,30.21-96.12,30.21-147.25s-10.16-100.68-30.21-147.25ZM3208.84,938.38c-18.74,43.56-45.66,82.75-80.01,116.51-34.55,33.96-74.8,60.63-119.63,79.26-46.52,19.34-96.07,29.14-147.26,29.14s-100.74-9.8-147.26-29.14c-44.83-18.63-85.08-45.3-119.63-79.26-34.35-33.76-61.27-72.96-80.01-116.51-19.28-44.8-29.06-92.46-29.06-141.65s9.78-96.85,29.06-141.65c18.74-43.56,45.66-82.76,80.01-116.51,34.55-33.96,74.8-60.63,119.63-79.26,46.52-19.34,96.07-29.15,147.26-29.15s100.74,9.81,147.26,29.15c44.83,18.63,85.08,45.3,119.63,79.26,34.35,33.75,61.27,72.95,80.01,116.51,19.28,44.8,29.06,92.46,29.06,141.65s-9.78,96.85-29.06,141.65Z"/>
    <path class="cls-6" d="M3221.86,649.48c-19.47-45.26-47.43-85.97-83.1-121.02-35.85-35.24-77.61-62.9-124.12-82.24-48.26-20.06-99.63-30.23-152.7-30.23s-104.44,10.17-152.7,30.23c-46.51,19.34-88.27,47-124.13,82.24-35.66,35.05-63.62,75.76-83.09,121.02-20.05,46.58-30.21,96.12-30.21,147.25s10.16,100.67,30.21,147.25c19.47,45.25,47.43,85.97,83.09,121.02,35.86,35.23,77.62,62.9,124.13,82.24,48.25,20.06,99.63,30.23,152.7,30.23s104.44-10.17,152.7-30.23c46.51-19.34,88.27-47.01,124.13-82.24,35.66-35.05,63.62-75.77,83.09-121.02,20.05-46.58,30.21-96.12,30.21-147.25s-10.16-100.68-30.21-147.25ZM3208.84,938.38c-18.74,43.56-45.66,82.75-80.01,116.51-34.55,33.96-74.8,60.63-119.63,79.26-46.52,19.34-96.07,29.14-147.26,29.14s-100.74-9.8-147.26-29.14c-44.83-18.63-85.08-45.3-119.63-79.26-34.35-33.76-61.27-72.96-80.01-116.51-19.28-44.8-29.06-92.46-29.06-141.65s9.78-96.85,29.06-141.65c18.74-43.56,45.66-82.76,80.01-116.51,34.55-33.96,74.8-60.63,119.63-79.26,46.52-19.34,96.07-29.15,147.26-29.15s100.74,9.81,147.26,29.15c44.83,18.63,85.08,45.3,119.63,79.26,34.35,33.75,61.27,72.95,80.01,116.51,19.28,44.8,29.06,92.46,29.06,141.65s-9.78,96.85-29.06,141.65Z"/>
    <path class="cls-12" d="M3346.83,595.69c-26.48-61.53-64.4-116.8-112.7-164.27-48.33-47.5-104.61-84.79-167.27-110.84-64.89-26.97-133.84-40.65-204.93-40.65s-140.03,13.68-204.92,40.65c-62.67,26.05-118.95,63.34-167.28,110.84-48.3,47.47-86.22,102.74-112.7,164.27-27.4,63.67-41.29,131.31-41.29,201.04s13.89,137.37,41.29,201.04c26.48,61.53,64.4,116.8,112.7,164.27,48.33,47.5,104.61,84.79,167.28,110.84,64.89,26.97,133.83,40.65,204.92,40.65s140.04-13.68,204.93-40.65c62.66-26.05,118.94-63.34,167.27-110.84,48.3-47.47,86.22-102.74,112.7-164.27,27.4-63.67,41.3-131.31,41.3-201.04s-13.9-137.37-41.3-201.04ZM3221.85,943.98c-19.47,45.25-47.43,85.97-83.09,121.02-35.85,35.23-77.62,62.9-124.13,82.24-48.25,20.06-99.63,30.23-152.7,30.23s-104.44-10.17-152.7-30.23c-46.51-19.34-88.27-47.01-124.12-82.24-35.67-35.05-63.62-75.77-83.1-121.02-20.05-46.58-30.21-96.12-30.21-147.25s10.16-100.67,30.21-147.25c19.48-45.26,47.43-85.97,83.1-121.02,35.85-35.24,77.61-62.9,124.12-82.24,48.26-20.06,99.63-30.23,152.7-30.23s104.45,10.17,152.7,30.23c46.51,19.34,88.28,47,124.13,82.24,35.66,35.05,63.62,75.76,83.09,121.02,20.05,46.57,30.21,96.12,30.21,147.25s-10.16,100.67-30.21,147.25Z"/>
    <path class="cls-13" d="M3346.83,595.69c-26.48-61.53-64.4-116.8-112.7-164.27-48.33-47.5-104.61-84.79-167.27-110.84-64.89-26.97-133.84-40.65-204.93-40.65s-140.03,13.68-204.92,40.65c-62.67,26.05-118.95,63.34-167.28,110.84-48.3,47.47-86.22,102.74-112.7,164.27-27.4,63.67-41.29,131.31-41.29,201.04s13.89,137.37,41.29,201.04c26.48,61.53,64.4,116.8,112.7,164.27,48.33,47.5,104.61,84.79,167.28,110.84,64.89,26.97,133.83,40.65,204.92,40.65s140.04-13.68,204.93-40.65c62.66-26.05,118.94-63.34,167.27-110.84,48.3-47.47,86.22-102.74,112.7-164.27,27.4-63.67,41.3-131.31,41.3-201.04s-13.9-137.37-41.3-201.04ZM3221.85,943.98c-19.47,45.25-47.43,85.97-83.09,121.02-35.85,35.23-77.62,62.9-124.13,82.24-48.25,20.06-99.63,30.23-152.7,30.23s-104.44-10.17-152.7-30.23c-46.51-19.34-88.27-47.01-124.12-82.24-35.67-35.05-63.62-75.77-83.1-121.02-20.05-46.58-30.21-96.12-30.21-147.25s10.16-100.67,30.21-147.25c19.48-45.26,47.43-85.97,83.1-121.02,35.85-35.24,77.61-62.9,124.12-82.24,48.26-20.06,99.63-30.23,152.7-30.23s104.45,10.17,152.7,30.23c46.51,19.34,88.28,47,124.13,82.24,35.66,35.05,63.62,75.76,83.09,121.02,20.05,46.57,30.21,96.12,30.21,147.25s-10.16,100.67-30.21,147.25Z"/>
  </g>
</svg>