<?xml version="1.0" encoding="UTF-8"?>
<svg id="Layer_1" data-name="Layer 1" xmlns="http://www.w3.org/2000/svg" xmlns:xlink="http://www.w3.org/1999/xlink" viewBox="0 0 280.43 86.24">
  <defs>
    <style>
      .cls-1 {
        fill: #1171b6;
      }

      .cls-2 {
        fill: url(#linear-gradient-2);
      }

      .cls-3 {
        fill: #202f62;
      }

      .cls-4 {
        fill: #fff;
      }

      .cls-5 {
        fill: url(#radial-gradient);
      }

      .cls-6 {
        filter: url(#drop-shadow-1);
      }

      .cls-7 {
        fill: url(#radial-gradient-2);
      }

      .cls-8 {
        fill: #cdd7ed;
      }

      .cls-9 {
        fill: #081639;
      }

      .cls-10 {
        fill: url(#linear-gradient);
      }
    </style>
    <radialGradient id="radial-gradient" cx="199.69" cy="43.7" fx="-20.97" fy="43.7" r="251.2" gradientTransform="translate(-1.06) scale(.47 1.01)" gradientUnits="userSpaceOnUse">
      <stop offset=".38" stop-color="#0a1624"/>
      <stop offset="1" stop-color="#2e4b59"/>
    </radialGradient>
    <filter id="drop-shadow-1" x="-1.12" y="3.72" width="260.88" height="82.28" filterUnits="userSpaceOnUse">
      <feOffset dx="-8.5" dy="14.17"/>
      <feGaussianBlur result="blur" stdDeviation="2.83"/>
      <feFlood flood-color="#231f20" flood-opacity=".77"/>
      <feComposite in2="blur" operator="in"/>
      <feComposite in="SourceGraphic"/>
    </filter>
    <linearGradient id="linear-gradient" x1="52.99" y1="32.67" x2="69.56" y2="32.67" gradientUnits="userSpaceOnUse">
      <stop offset=".13" stop-color="#f9f7ea"/>
      <stop offset=".57" stop-color="#d3a345"/>
      <stop offset=".66" stop-color="#c29237"/>
      <stop offset=".77" stop-color="#7b5622"/>
      <stop offset=".8" stop-color="#5f4520"/>
      <stop offset=".82" stop-color="#503a1b"/>
      <stop offset=".84" stop-color="#3a2b14"/>
      <stop offset=".87" stop-color="#2a1f0f"/>
      <stop offset=".9" stop-color="#20190c"/>
      <stop offset=".95" stop-color="#1e170c"/>
    </linearGradient>
    <radialGradient id="radial-gradient-2" cx="60.13" cy="32.67" fx="60.13" fy="32.67" r="46.54" gradientTransform="translate(0 -40.06) scale(1 2.23)" gradientUnits="userSpaceOnUse">
      <stop offset="0" stop-color="#fff" stop-opacity="0"/>
      <stop offset=".33" stop-color="#c99f45"/>
      <stop offset=".48" stop-color="#7a5522"/>
      <stop offset=".62" stop-color="#18100b"/>
    </radialGradient>
    <linearGradient id="linear-gradient-2" x1="39.48" y1="5.9" x2="48.44" y2="56.72" gradientUnits="userSpaceOnUse">
      <stop offset=".13" stop-color="#d3a347"/>
      <stop offset=".26" stop-color="#a97a2e"/>
      <stop offset=".45" stop-color="#af8032"/>
      <stop offset=".63" stop-color="#d3a345"/>
      <stop offset=".78" stop-color="#c29237"/>
      <stop offset=".95" stop-color="#7b5622"/>
    </linearGradient>
  </defs>
  <rect class="cls-5" width="280.43" height="86.24"/>
  <path class="cls-4" d="M280.43,73.53v11.77H0v-11.77h.11v-6.77h83.05c2.68,0,5.33.55,7.77,1.62l11.78,5.15h177.72Z"/>
  <g class="cls-6">
    <path class="cls-10" d="M68.41,26.63v12.99c0,.91-.41,1.79-1.15,2.44l-6.57,6.54c-.71.63-1.17,1.45-1.3,2.32l-.47,2.13-4.04,4.4v-7.72c0-1.78.89-3.47,2.43-4.63l3.45-2.59c1.04-.91,1.62-2.14,1.62-3.42v-9.24c0-1.26-.64-2.46-1.75-3.27l-7.25-5.35c-1-.9-1.55-2.11-1.55-3.36V7.89l15.45,16.64c.71.52,1.12,1.29,1.12,2.1Z"/>
    <path class="cls-7" d="M68.41,26.63v12.99c0,.91-.41,1.79-1.15,2.44l-6.57,6.54c-.71.63-1.17,1.45-1.3,2.32l-.47,2.13-4.04,4.4v-7.72c0-1.78.89-3.47,2.43-4.63l3.45-2.59c1.04-.91,1.62-2.14,1.62-3.42v-9.24c0-1.26-.64-2.46-1.75-3.27l-7.25-5.35c-1-.9-1.55-2.11-1.55-3.36V7.89l15.45,16.64c.71.52,1.12,1.29,1.12,2.1Z"/>
    <path class="cls-3" d="M32.11,28.9l-.05,9.67c0,1.22.59,2.39,1.64,3.2l8.41,6.5,2.44,7.04-15.7-14c-.35-.31-.55-.73-.55-1.17v-8.05l3.81-3.2Z"/>
    <path class="cls-3" d="M75.33,29.4v10.68c0,.64-.29,1.25-.82,1.7l-18.13,15.54v-7.38c0-.16.77-2.65,2.32-3.9l7.59-6.03c.82-.66,1.29-1.6,1.3-2.58l.05-16.09,3.89,3.78v15.96h.46v-15.51l2.92,2.84c.27.27.42.61.42.97Z"/>
    <path class="cls-9" d="M56.13,55.03l12.87-11.19c.86-.75,1.52-1.66,1.92-2.66l.6-1.48v3.41c0,.8-.35,1.58-.99,2.16l-14.27,13.12.12-3.35"/>
    <path class="cls-9" d="M75.33,37.77v2.31c0,.64-.29,1.25-.82,1.7l-3.07,2.64s0,0,0,0c-.17.13-.31.25-.43.37l-14.62,12.53v-2.48l14.85-11.31c.86-.75,2.88-1.95,3.29-2.96l.82-2.81Z"/>
    <path class="cls-2" d="M51.82,3.72v13.79h-.07l-11.23,8.2c-1.11.81-1.75,2.01-1.75,3.27v8.65c0,1.28.58,2.51,1.62,3.42l6.68,5.85.03.03v11.55l-4.04-4.4-.47-3.16c-.13-.88-.59-1.69-1.3-2.32l-7.4-6.54c-.73-.65-1.14-1.52-1.14-2.44v-15.92c0-.81.41-1.58,1.12-2.1l10.36-9.06c.84-.73,1.61-1.53,2.3-2.37l5.29-6.44Z"/>
    <polygon class="cls-3" points="15.99 53.69 15.99 53.72 15.95 53.69 15.99 53.69"/>
    <polygon class="cls-3" points="16.01 53.74 15.99 53.76 15.99 53.72 16.01 53.74"/>
    <g>
      <path class="cls-1" d="M109.06,23.3h-1.62c-.88,0-1.32.42-1.32,1.26v13.46l-11.25-11.82c-1.72-1.95-3.22-2.92-4.49-2.92-2.51.01-3.76,1.36-3.76,4.03v13.69c0,.85.43,1.27,1.3,1.27h1.64c.87,0,1.3-.43,1.3-1.29v-13.41l11.28,11.8c1.72,1.94,3.21,2.9,4.49,2.9,2.5,0,3.76-1.33,3.78-4.01v-13.69c0-.85-.45-1.27-1.35-1.27Z"/>
      <path class="cls-1" d="M133.89,30.6h-18.2v-2.92h18.2c.86,0,1.3-.43,1.3-1.28l.02-1.84c0-.84-.44-1.26-1.3-1.26h-17.9c-3.06,0-4.59,1.64-4.59,4.92v9.13c0,3.28,1.53,4.92,4.59,4.92h17.88c.86,0,1.3-.42,1.3-1.27l.02-1.83c0-.85-.44-1.28-1.32-1.28l-18.18.02v-2.93h18.18c.88,0,1.32-.43,1.32-1.28v-1.83c0-.85-.44-1.27-1.32-1.27Z"/>
      <path class="cls-1" d="M162.96,23.3h-6.18l-7.41,7.39c.06.11.1.17.1.2-.02,0-.06-.04-.12-.13l-.02-.02-.03.02c-.06.09-.1.13-.12.13,0-.03.04-.09.1-.2l-7.41-7.39h-6.18l10.16,9.49-10.16,9.48h6.18l7.41-7.39c-.06-.11-.1-.17-.1-.2.02,0,.06.05.12.13l.03.02.02-.02c.06-.08.1-.13.12-.13,0,.03-.04.09-.1.2l7.41,7.39h6.18l-10.16-9.48,10.16-9.49Z"/>
      <path class="cls-1" d="M185.89,23.3h-1.63c-.88.02-1.32.45-1.32,1.27l-.02,13.34-15.21-.02v-13.32c0-.85-.45-1.27-1.34-1.27h-1.61c-.88,0-1.32.42-1.32,1.27v12.78c0,3.28,1.53,4.92,4.57,4.92h14.63c3.05,0,4.57-1.64,4.57-4.92v-12.78c0-.85-.44-1.27-1.32-1.27Z"/>
      <path class="cls-1" d="M207.42,30.6h-14.89s-.04-2.92-.04-2.92h18.2c.87,0,1.3-.43,1.3-1.28l.02-1.84c0-.84-.43-1.26-1.3-1.26h-17.89c-3.07,0-4.6,1.64-4.6,4.92l.03,1.83c0,3.28,1.52,4.93,4.59,4.93l14.89-.02.02,2.93h-18.18c-.87,0-1.3.43-1.3,1.28l-.02,1.85c0,.83.42,1.25,1.27,1.25h17.92c3.05,0,4.57-1.64,4.57-4.92v-1.83c0-3.28-1.53-4.92-4.59-4.92Z"/>
      <path class="cls-1" d="M244.88,26.22c-1.18-1.95-2.56-2.92-4.13-2.92s-2.94.98-4.1,2.95l-9.67,16.02h4.75l2.2-3.65h13.65l2.19,3.65h4.76l-9.65-16.05ZM236.59,34.25l4.16-6.94,4.17,6.94h-8.33Z"/>
      <path class="cls-1" d="M258.24,23.3h-1.62c-.88,0-1.32.3-1.32.91h-.02v4.88s4.28-2.99,4.28-2.99v-1.53c0-.85-.44-1.27-1.32-1.27ZM255.29,31.04v9.96c.01.85.45,1.27,1.33,1.27h1.62c.88,0,1.32-.42,1.32-1.27v-12.95l-4.27,2.99Z"/>
    </g>
    <path class="cls-1" d="M43.31,40.48v-16.16s2.35,4.23,3.14,5.09c1.75,1.91,6.98,6.01,6.98,6.01.3.27.79.05.79-.35v-6.25l3.12-3v18.04l-11.14-10.36c-.24-.25-.66-.08-.66.27v7.37c0,1.08-1.3,1.63-2.07.88l-.66-.63c-.25-.24.51-.56.51-.9Z"/>
    <g>
      <path class="cls-8" d="M121.87,52.67c.54-1.38,1.5-2.07,2.87-2.07h10.12l-3.37,12.5h-3.29l.94-3.45,1.67-6.19h-5.59c-.08,0-.15.03-.23.08-.08.06-.14.13-.17.22l-.81,3.02h4.94l-.78,2.87h-4.93l-.93,3.44h-3.27l2.84-10.43Z"/>
      <path class="cls-8" d="M135.79,52.67c.55-1.38,1.54-2.07,2.97-2.07h9.57l-.77,2.86h-8.25c-.08,0-.15.03-.24.08s-.14.13-.18.22l-1.61,6.03c-.02.12.01.22.09.31s.19.13.32.13h8.07c-.23.88-.49,1.83-.77,2.86h-8.19c-1.07-.04-1.86-.39-2.39-1.05-.53-.66-.71-1.38-.56-2.15l1.94-7.23Z"/>
      <path class="cls-8" d="M148.99,52.67c.54-1.38,1.5-2.07,2.87-2.07h10.12l-3.37,12.5h-3.29l.94-3.45,1.67-6.19h-5.59c-.08,0-.15.03-.23.08-.08.06-.14.13-.17.22l-.81,3.02h4.94l-.78,2.87h-4.93l-.93,3.44h-3.27l2.84-10.43Z"/>
      <path class="cls-8" d="M161.03,61.04c.3-1.13.64-2.39,1.01-3.78.37-1.39.69-2.6.97-3.63.27-1.03.42-1.58.43-1.63,0-.01,0-.02.01-.03.12-.41.36-.73.74-.98.38-.25.8-.38,1.26-.38h7.63c.97,0,1.76.32,2.36.97.6.64.79,1.39.59,2.23-.05.19-.17.65-.37,1.39-.2.74-.42,1.56-.66,2.46-.24.9-.54,2.03-.91,3.39-.55,1.38-1.54,2.07-2.97,2.07h-10.66c.07-.25.25-.94.56-2.07ZM171.22,59.03c.18-.65.37-1.37.58-2.15.21-.79.48-1.78.8-2.97.02-.12-.01-.22-.09-.31s-.19-.13-.31-.13h-5.68c-.05.17-.17.61-.35,1.3-.19.69-.39,1.46-.62,2.3s-.52,1.9-.86,3.17h6.2c.05-.16.16-.57.33-1.21Z"/>
      <path class="cls-8" d="M177.9,52.67c.56-1.38,1.55-2.07,2.98-2.07h9.56l-.76,2.86h-8.25c-.08,0-.15.03-.24.08-.09.06-.15.13-.19.22l-.44,1.65h5.62l-.73,2.86h-5.65l-.41,1.52c-.02.12.01.22.09.31.08.09.18.13.31.13h8.06c-.23.88-.48,1.83-.76,2.86h-8.18c-.98,0-1.76-.32-2.35-.97-.6-.64-.79-1.39-.59-2.23l1.94-7.23Z"/>
      <path class="cls-8" d="M202.25,63.1h-2.72c.09-.31.24-.84.44-1.56.21-.73.42-1.5.65-2.31s.51-1.82.84-3.01c-.57.77-1.22,1.61-1.93,2.53-.72.92-1.62,2.06-2.71,3.44-.49,0-.92-.14-1.31-.41-.39-.28-.63-.64-.74-1.09-.03-.1-.09-.4-.19-.88-.1-.48-.21-1.01-.34-1.61-.12-.59-.28-1.34-.46-2.24-.09.33-.24.87-.44,1.62-.21.75-.42,1.55-.66,2.4-.23.85-.51,1.89-.85,3.12h-3.32c.07-.25.26-.94.56-2.07s.65-2.39,1.02-3.78c.37-1.39.85-3.14,1.42-5.25.39-.94,1.08-1.41,2.05-1.41h1.97c.03.13.12.54.26,1.24.15.7.31,1.48.5,2.34.19.87.42,1.96.7,3.28l5.46-6.87h3.78c-.08.27-.29,1.03-.63,2.3s-.73,2.69-1.15,4.26c-.42,1.57-.96,3.55-1.6,5.94h-.6Z"/>
      <path class="cls-8" d="M220.92,50.6l-6.72,7-1.43,5.5h-3.51l1.52-5.75-3.82-6.76h3.87l2.15,3.83,3.77-3.83h4.18Z"/>
    </g>
  </g>
</svg>