<?xml version="1.0" encoding="UTF-8"?>
<svg id="Layer_1" xmlns="http://www.w3.org/2000/svg" version="1.1" viewBox="0 0 2242.03 888.54">
  <!-- Generator: Adobe Illustrator 29.4.0, SVG Export Plug-In . SVG Version: 2.1.0 Build 152)  -->
  <defs>
    <style>
      .st0 {
        fill: #fff;
      }

      .st1, .st2, .st3, .st4, .st5, .st6 {
        fill: none;
        stroke-miterlimit: 10;
      }

      .st1, .st3, .st4, .st6 {
        stroke: #fff;
      }

      .st7 {
        isolation: isolate;
      }

      .st2 {
        stroke-dasharray: 4.99 4.99;
      }

      .st2, .st5 {
        stroke: #6d6e70;
      }

      .st3 {
        stroke-dasharray: 4.97 4.97;
      }

      .st4 {
        stroke-dasharray: 5.04 5.04;
      }

      .st8 {
        fill: #929497;
      }

      .st6 {
        stroke-dasharray: 5 5;
      }
    </style>
  </defs>
  <rect x="19.76" y="20.66" width="2207.39" height="847.21" rx="37.19" ry="37.19"/>
  <g>
    <g>
      <g>
        <g>
          <line class="st5" x1="520.84" y1="175.23" x2="521.91" y2="177.49"/>
          <line class="st2" x1="524.04" y1="182" x2="672.13" y2="495.76"/>
          <line class="st5" x1="673.19" y1="498.02" x2="674.26" y2="500.28"/>
        </g>
        <line class="st1" x1="577.88" y1="500.28" x2="452.59" y2="218.24"/>
        <polyline class="st1" points="375.43 768.03 532.65 398.38 576.97 294.18 609.27 218.24"/>
        <polyline class="st1" points="561.94 177.13 542.29 220.73 497.71 319.74 295.8 768.03"/>
        <path class="st0" d="M580.62,321.06l-33.77,80.6,45.51,108.24h-90.81l-24.4,58.33h135.18l48.32,108.81h84.89l-164.93-355.98h0Z"/>
      </g>
      <g>
        <line class="st1" x1="333.65" y1="216.05" x2="336.15" y2="216.05"/>
        <line class="st3" x1="341.12" y1="216.05" x2="596.84" y2="216.05"/>
        <line class="st1" x1="599.32" y1="216.05" x2="601.82" y2="216.05"/>
      </g>
      <g>
        <line class="st1" x1="484.83" y1="293.52" x2="482.33" y2="293.52"/>
        <line class="st4" x1="477.29" y1="293.52" x2="338.67" y2="293.52"/>
        <line class="st1" x1="336.15" y1="293.52" x2="333.65" y2="293.52"/>
      </g>
      <path class="st1" d="M684.39,400.9c0-47.36-36.99-86.65-84.23-89.44"/>
      <g>
        <path class="st1" d="M626.8,216.8c.82.14,1.64.29,2.46.44"/>
        <path class="st6" d="M634.16,218.22c85.93,18.32,147.53,93.99,147.53,182.69,0,55.62-24.26,107.49-66.75,143.12"/>
        <path class="st1" d="M713.02,545.61c-.64.53-1.29,1.05-1.95,1.57"/>
      </g>
      <path class="st8" d="M624.15,232.12l-23.07,63.81c55.05,3.27,98.85,49.09,98.85,104.97,0,27.11-10.32,51.84-27.27,70.5l28.72,63.6c39.45-31.36,64.74-79.78,64.74-134.1,0-84.65-61.38-154.89-141.98-168.78h0Z"/>
    </g>
    <g class="st7">
      <g class="st7">
        <path class="st0" d="M932.36,248.18c9.51,0,16.76,2.87,21.76,8.59,5,5.73,7.5,13.96,7.5,24.68s-2.65,18.56-7.95,23.86-13.68,7.95-25.14,7.95h-27.79l-14.63-14.63h46.26c5.49,0,9.29-1.77,11.43-5.3,2.13-3.53,3.2-7.74,3.2-12.62,0-2.56-.25-4.94-.73-7.13-.49-2.19-1.28-4.08-2.38-5.67-1.1-1.58-2.59-2.83-4.48-3.75-1.89-.91-4.24-1.37-7.04-1.37h-38.4l-13.35-14.63h51.74ZM883.72,376.17v-72.59l14.63,14.63v57.96h-14.63Z"/>
        <path class="st0" d="M994.52,347.83v-99.65l14.63,12.25v82.83c0,2.93.91,5.49,2.74,7.68,1.83,2.19,4.08,4.05,6.77,5.58,2.68,1.53,5.55,2.68,8.59,3.47,3.05.79,5.85,1.31,8.41,1.55v14.63c-4.51-.24-9.2-1.13-14.08-2.65-4.88-1.52-9.32-3.53-13.35-6.03-4.02-2.5-7.31-5.42-9.87-8.78-2.56-3.35-3.84-6.98-3.84-10.88ZM1041.15,361.54h.91c2.56-.24,5.36-.79,8.41-1.65,3.05-.85,5.91-2.01,8.59-3.47,2.68-1.46,4.94-3.29,6.77-5.48,1.83-2.19,2.74-4.75,2.74-7.68v-82.83l14.63-12.25v99.65c0,3.9-1.28,7.53-3.84,10.88-2.56,3.35-5.85,6.28-9.87,8.78-4.02,2.5-8.47,4.51-13.35,6.03-4.88,1.53-9.57,2.41-14.08,2.65h-.91v-14.63Z"/>
        <path class="st0" d="M1125.25,248.18l14.63,12.25v56.68l-14.63-12.25v-56.68ZM1125.25,376.17v-65.82l14.63,12.25v38.95h42.24l10.79,14.63h-67.65Z"/>
        <path class="st0" d="M1212.1,281.28c0-2.31.46-5.33,1.37-9.05.91-3.72,2.74-7.37,5.49-10.97,2.74-3.59,6.55-6.67,11.43-9.23,4.87-2.56,11.21-3.84,19.01-3.84h32.73l-13.35,14.63h-19.38c-7.8,0-13.53,1.53-17.19,4.57-3.66,3.05-5.49,7.68-5.49,13.9,0,4.51.49,8.02,1.46,10.51.97,2.5,2.35,4.48,4.11,5.94,1.76,1.46,3.96,2.59,6.58,3.38,2.62.79,5.58,1.74,8.87,2.83v14.63c-4.27-1.46-8.53-2.83-12.8-4.11-4.27-1.28-8.08-3.14-11.43-5.58-3.35-2.44-6.1-5.79-8.23-10.06-2.13-4.26-3.2-10.12-3.2-17.55ZM1231.84,361.54h19.38c7.8,0,13.53-1.52,17.19-4.57,3.66-3.04,5.49-7.68,5.49-13.9,0-4.51-.49-8.01-1.46-10.51-.98-2.5-2.35-4.48-4.11-5.94-1.77-1.46-3.96-2.59-6.58-3.38-2.62-.79-5.58-1.74-8.87-2.83v-14.63c4.26,1.46,8.53,2.83,12.8,4.11,4.26,1.28,8.07,3.14,11.43,5.58,3.35,2.44,6.09,5.79,8.23,10.06,2.13,4.27,3.2,10.12,3.2,17.55,0,2.32-.46,5.33-1.37,9.05-.91,3.72-2.74,7.38-5.49,10.97-2.74,3.6-6.52,6.67-11.34,9.23-4.82,2.56-11.18,3.84-19.11,3.84h-32.73l13.35-14.63Z"/>
        <path class="st0" d="M1322.35,248.18h72.95l-17.55,14.63h-55.4v-14.63ZM1322.72,304.86h61.62l-10.79,14.63h-36.2v42.05h40.96l17.55,14.63h-73.14v-71.31Z"/>
      </g>
      <g class="st7">
        <path class="st0" d="M863.25,595.58l40.77-101.48,7.31,18.83-33.46,82.64h-14.63ZM907.13,486.79l7.5-19.2,47.72,127.99h-14.63l-40.59-108.79Z"/>
        <path class="st0" d="M988.86,467.59h51.74c9.51,0,16.76,2.87,21.76,8.59,5,5.73,7.5,13.96,7.5,24.68s-2.65,18.56-7.95,23.86-13.68,7.95-25.14,7.95h-27.79l-14.63-14.63h46.26c2.8,0,5.15-.46,7.04-1.37,1.89-.91,3.38-2.19,4.48-3.84,1.1-1.65,1.89-3.57,2.38-5.76.49-2.19.73-4.51.73-6.95,0-2.56-.25-4.94-.73-7.13-.49-2.19-1.28-4.08-2.38-5.67-1.1-1.58-2.59-2.83-4.48-3.75-1.89-.91-4.24-1.37-7.04-1.37h-38.4l-13.35-14.63ZM991.97,595.58v-72.59l14.63,14.63v57.96h-14.63ZM1042.25,538.17l27.61,57.41h-16.27l-27.61-57.41h16.27Z"/>
        <path class="st0" d="M1112.64,488.98l10.6,10.06c-4.15,4.63-7.22,9.75-9.23,15.36-2.01,5.61-3.02,11.34-3.02,17.19,0,6.83,1.28,13.23,3.84,19.2,2.56,5.97,6.09,11.22,10.6,15.72,4.51,4.51,9.81,8.04,15.91,10.6,6.09,2.56,12.68,3.84,19.75,3.84,4.27,0,8.26-.52,11.98-1.55,3.72-1.03,7.52-2.65,11.43-4.84l8.78,11.88c-4.88,2.92-9.9,5.18-15.08,6.76-5.18,1.59-10.88,2.38-17.1,2.38-9.02,0-17.46-1.67-25.32-5.03-7.86-3.35-14.72-7.92-20.57-13.71-5.85-5.79-10.45-12.58-13.8-20.39-3.35-7.8-5.03-16.09-5.03-24.87,0-8.17,1.43-15.88,4.3-23.13,2.86-7.25,6.86-13.74,11.98-19.47ZM1160.54,467.59c6.46,0,12.31.79,17.55,2.38,5.24,1.59,10.3,3.84,15.18,6.77l-9.51,11.34c-3.9-2.19-7.8-3.72-11.7-4.57-3.9-.85-7.68-1.28-11.34-1.28-6.22,0-12.25,1.07-18.1,3.2-5.85,2.13-11.15,5.46-15.91,9.96l-10.6-10.06c5.85-5.48,12.43-9.81,19.75-12.98,7.31-3.17,15.54-4.75,24.68-4.75Z"/>
        <path class="st0" d="M1228.92,467.59l14.63,9.14v44.8h18.1l10.79,14.63h-28.89v59.42h-14.63v-127.99ZM1267.13,521.53h36.75v-44.8l14.63-9.14v127.99h-14.63v-59.42h-25.96l-10.79-14.63Z"/>
        <path class="st0" d="M1377.02,534.88l-14.63-12.25v-55.04h14.63v67.29ZM1362.39,595.58v-67.47l14.63,12.25v55.22h-14.63Z"/>
        <path class="st0" d="M1418.89,482.22l-10.79-14.63h91.42l-10.79,14.63h-69.84ZM1461.13,487.7v107.88h-14.63v-107.88h14.63Z"/>
        <path class="st0" d="M1530.6,467.59h72.95l-17.55,14.63h-55.4v-14.63ZM1530.97,524.27h61.62l-10.79,14.63h-36.2v42.05h40.96l17.55,14.63h-73.14v-71.31Z"/>
        <path class="st0" d="M1646.89,488.98l10.6,10.06c-4.15,4.63-7.22,9.75-9.23,15.36-2.01,5.61-3.02,11.34-3.02,17.19,0,6.83,1.28,13.23,3.84,19.2,2.56,5.97,6.09,11.22,10.61,15.72,4.51,4.51,9.81,8.04,15.91,10.6,6.09,2.56,12.68,3.84,19.75,3.84,4.27,0,8.26-.52,11.98-1.55,3.72-1.03,7.52-2.65,11.43-4.84l8.78,11.88c-4.88,2.92-9.9,5.18-15.08,6.76-5.18,1.59-10.88,2.38-17.1,2.38-9.02,0-17.46-1.67-25.32-5.03-7.86-3.35-14.72-7.92-20.57-13.71-5.85-5.79-10.45-12.58-13.8-20.39-3.35-7.8-5.03-16.09-5.03-24.87,0-8.17,1.43-15.88,4.3-23.13,2.86-7.25,6.86-13.74,11.98-19.47ZM1694.79,467.59c6.46,0,12.31.79,17.55,2.38,5.24,1.59,10.3,3.84,15.18,6.77l-9.51,11.34c-3.9-2.19-7.8-3.72-11.7-4.57-3.9-.85-7.68-1.28-11.34-1.28-6.22,0-12.25,1.07-18.1,3.2-5.85,2.13-11.15,5.46-15.91,9.96l-10.6-10.06c5.85-5.48,12.43-9.81,19.75-12.98,7.31-3.17,15.54-4.75,24.68-4.75Z"/>
        <path class="st0" d="M1761.16,482.22l-10.79-14.63h91.42l-10.79,14.63h-69.84ZM1803.39,487.7v107.88h-14.63v-107.88h14.63Z"/>
        <path class="st0" d="M1862.82,500.69c0-2.31.46-5.33,1.37-9.05.91-3.72,2.74-7.37,5.49-10.97,2.74-3.59,6.55-6.67,11.43-9.23,4.87-2.56,11.21-3.84,19.01-3.84h32.73l-13.35,14.63h-19.38c-7.8,0-13.53,1.53-17.19,4.57-3.66,3.05-5.49,7.68-5.49,13.9,0,4.51.49,8.02,1.46,10.51.97,2.5,2.35,4.48,4.11,5.94,1.76,1.46,3.96,2.59,6.58,3.38,2.62.79,5.58,1.74,8.87,2.83v14.63c-4.27-1.46-8.53-2.83-12.8-4.11-4.27-1.28-8.08-3.14-11.43-5.58-3.35-2.44-6.1-5.79-8.23-10.06-2.13-4.26-3.2-10.12-3.2-17.55ZM1882.56,580.95h19.38c7.8,0,13.53-1.52,17.19-4.57,3.66-3.04,5.49-7.68,5.49-13.9,0-4.51-.49-8.01-1.46-10.51-.98-2.5-2.35-4.48-4.11-5.94-1.77-1.46-3.96-2.59-6.58-3.38-2.62-.79-5.58-1.74-8.87-2.83v-14.63c4.26,1.46,8.53,2.83,12.8,4.11,4.26,1.28,8.07,3.14,11.43,5.58,3.35,2.44,6.09,5.79,8.23,10.06,2.13,4.27,3.2,10.12,3.2,17.55,0,2.32-.46,5.33-1.37,9.05-.91,3.72-2.74,7.38-5.49,10.97-2.74,3.6-6.52,6.67-11.34,9.23-4.82,2.56-11.18,3.84-19.11,3.84h-32.73l13.35-14.63Z"/>
      </g>
    </g>
  </g>
</svg>